<svg xmlns="http://www.w3.org/2000/svg" version="1.1" xmlns:xlink="http://www.w3.org/1999/xlink" xmlns:svgjs="http://svgjs.com/svgjs" width="1440" height="560" preserveAspectRatio="none" viewBox="0 0 1440 560"><g mask="url(&quot;#SvgjsMask1038&quot;)" fill="none"><rect width="1440" height="560" x="0" y="0" fill="rgba(255, 255, 255, 1)"></rect><path d="M71.89 54.95L136.85 92.45L136.85 167.45L71.89 204.95L6.94 167.45L6.94 92.45zM6.94 167.45L71.89 204.95L71.89 279.95L6.94 317.45L-58.01 279.95L-58.01 204.95zM6.94 392.45L71.89 429.95L71.89 504.95L6.94 542.45L-58.01 504.95L-58.01 429.95zM71.89 504.95L136.85 542.45L136.85 617.45L71.89 654.95L6.94 617.45L6.94 542.45zM136.85 -57.55L201.8 -20.05L201.8 54.95L136.85 92.45L71.89 54.95L71.89 -20.05zM201.8 279.95L266.75 317.45L266.75 392.45L201.8 429.95L136.85 392.45L136.85 317.45zM136.85 392.45L201.8 429.95L201.8 504.95L136.85 542.45L71.89 504.95L71.89 429.95zM266.75 -57.55L331.71 -20.05L331.71 54.95L266.75 92.45L201.8 54.95L201.8 -20.05zM266.75 167.45L331.71 204.95L331.71 279.95L266.75 317.45L201.8 279.95L201.8 204.95zM331.71 279.95L396.66 317.45L396.66 392.45L331.71 429.95L266.75 392.45L266.75 317.45zM266.75 392.45L331.71 429.95L331.71 504.95L266.75 542.45L201.8 504.95L201.8 429.95zM396.66 -57.55L461.62 -20.05L461.62 54.95L396.66 92.45L331.71 54.95L331.71 -20.05zM461.62 504.95L526.57 542.45L526.57 617.45L461.62 654.95L396.66 617.45L396.66 542.45zM526.57 -57.55L591.52 -20.05L591.52 54.95L526.57 92.45L461.62 54.95L461.62 -20.05zM526.57 167.45L591.52 204.95L591.52 279.95L526.57 317.45L461.62 279.95L461.62 204.95zM591.52 279.95L656.48 317.45L656.48 392.45L591.52 429.95L526.57 392.45L526.57 317.45zM656.48 -57.55L721.43 -20.05L721.43 54.95L656.48 92.45L591.52 54.95L591.52 -20.05zM721.43 504.95L786.39 542.45L786.39 617.45L721.43 654.95L656.48 617.45L656.48 542.45zM786.38 392.45L851.34 429.95L851.34 504.95L786.38 542.45L721.43 504.95L721.43 429.95zM851.34 504.95L916.29 542.45L916.29 617.45L851.34 654.95L786.38 617.45L786.38 542.45zM1046.2 167.45L1111.15 204.95L1111.15 279.95L1046.2 317.45L981.25 279.95L981.25 204.95zM1046.2 392.45L1111.15 429.95L1111.15 504.95L1046.2 542.45L981.25 504.95L981.25 429.95zM1176.11 -57.55L1241.06 -20.05L1241.06 54.95L1176.11 92.45L1111.15 54.95L1111.15 -20.05zM1241.06 54.95L1306.01 92.45L1306.01 167.45L1241.06 204.95L1176.11 167.45L1176.11 92.45zM1241.06 279.95L1306.01 317.45L1306.01 392.45L1241.06 429.95L1176.11 392.45L1176.11 317.45zM1176.11 392.45L1241.06 429.95L1241.06 504.95L1176.11 542.45L1111.15 504.95L1111.15 429.95zM1241.06 504.95L1306.01 542.45L1306.01 617.45L1241.06 654.95L1176.11 617.45L1176.11 542.45zM1435.92 -57.55L1500.88 -20.05L1500.88 54.95L1435.92 92.45L1370.97 54.95L1370.97 -20.05zM1435.92 167.45L1500.88 204.95L1500.88 279.95L1435.92 317.45L1370.97 279.95L1370.97 204.95zM1500.88 279.95L1565.83 317.45L1565.83 392.45L1500.88 429.95L1435.92 392.45L1435.92 317.45z" stroke="rgba(127, 157, 188, 1)" stroke-width="2"></path><path d="M64.39 54.95 a7.5 7.5 0 1 0 15 0 a7.5 7.5 0 1 0 -15 0zM129.35 92.45 a7.5 7.5 0 1 0 15 0 a7.5 7.5 0 1 0 -15 0zM129.35 167.45 a7.5 7.5 0 1 0 15 0 a7.5 7.5 0 1 0 -15 0zM64.39 204.95 a7.5 7.5 0 1 0 15 0 a7.5 7.5 0 1 0 -15 0zM-0.56 167.45 a7.5 7.5 0 1 0 15 0 a7.5 7.5 0 1 0 -15 0zM-0.56 92.45 a7.5 7.5 0 1 0 15 0 a7.5 7.5 0 1 0 -15 0zM64.39 279.95 a7.5 7.5 0 1 0 15 0 a7.5 7.5 0 1 0 -15 0zM-0.56 317.45 a7.5 7.5 0 1 0 15 0 a7.5 7.5 0 1 0 -15 0zM-65.51 279.95 a7.5 7.5 0 1 0 15 0 a7.5 7.5 0 1 0 -15 0zM-65.51 204.95 a7.5 7.5 0 1 0 15 0 a7.5 7.5 0 1 0 -15 0zM-0.56 392.45 a7.5 7.5 0 1 0 15 0 a7.5 7.5 0 1 0 -15 0zM64.39 429.95 a7.5 7.5 0 1 0 15 0 a7.5 7.5 0 1 0 -15 0zM64.39 504.95 a7.5 7.5 0 1 0 15 0 a7.5 7.5 0 1 0 -15 0zM-0.56 542.45 a7.5 7.5 0 1 0 15 0 a7.5 7.5 0 1 0 -15 0zM-65.51 504.95 a7.5 7.5 0 1 0 15 0 a7.5 7.5 0 1 0 -15 0zM-65.51 429.95 a7.5 7.5 0 1 0 15 0 a7.5 7.5 0 1 0 -15 0zM129.35 542.45 a7.5 7.5 0 1 0 15 0 a7.5 7.5 0 1 0 -15 0zM129.35 617.45 a7.5 7.5 0 1 0 15 0 a7.5 7.5 0 1 0 -15 0zM64.39 654.95 a7.5 7.5 0 1 0 15 0 a7.5 7.5 0 1 0 -15 0zM-0.56 617.45 a7.5 7.5 0 1 0 15 0 a7.5 7.5 0 1 0 -15 0zM129.35 -57.55 a7.5 7.5 0 1 0 15 0 a7.5 7.5 0 1 0 -15 0zM194.3 -20.05 a7.5 7.5 0 1 0 15 0 a7.5 7.5 0 1 0 -15 0zM194.3 54.95 a7.5 7.5 0 1 0 15 0 a7.5 7.5 0 1 0 -15 0zM64.39 -20.05 a7.5 7.5 0 1 0 15 0 a7.5 7.5 0 1 0 -15 0zM194.3 279.95 a7.5 7.5 0 1 0 15 0 a7.5 7.5 0 1 0 -15 0zM259.25 317.45 a7.5 7.5 0 1 0 15 0 a7.5 7.5 0 1 0 -15 0zM259.25 392.45 a7.5 7.5 0 1 0 15 0 a7.5 7.5 0 1 0 -15 0zM194.3 429.95 a7.5 7.5 0 1 0 15 0 a7.5 7.5 0 1 0 -15 0zM129.35 392.45 a7.5 7.5 0 1 0 15 0 a7.5 7.5 0 1 0 -15 0zM129.35 317.45 a7.5 7.5 0 1 0 15 0 a7.5 7.5 0 1 0 -15 0zM194.3 504.95 a7.5 7.5 0 1 0 15 0 a7.5 7.5 0 1 0 -15 0zM259.25 -57.55 a7.5 7.5 0 1 0 15 0 a7.5 7.5 0 1 0 -15 0zM324.21 -20.05 a7.5 7.5 0 1 0 15 0 a7.5 7.5 0 1 0 -15 0zM324.21 54.95 a7.5 7.5 0 1 0 15 0 a7.5 7.5 0 1 0 -15 0zM259.25 92.45 a7.5 7.5 0 1 0 15 0 a7.5 7.5 0 1 0 -15 0zM259.25 167.45 a7.5 7.5 0 1 0 15 0 a7.5 7.5 0 1 0 -15 0zM324.21 204.95 a7.5 7.5 0 1 0 15 0 a7.5 7.5 0 1 0 -15 0zM324.21 279.95 a7.5 7.5 0 1 0 15 0 a7.5 7.5 0 1 0 -15 0zM194.3 204.95 a7.5 7.5 0 1 0 15 0 a7.5 7.5 0 1 0 -15 0zM389.16 317.45 a7.5 7.5 0 1 0 15 0 a7.5 7.5 0 1 0 -15 0zM389.16 392.45 a7.5 7.5 0 1 0 15 0 a7.5 7.5 0 1 0 -15 0zM324.21 429.95 a7.5 7.5 0 1 0 15 0 a7.5 7.5 0 1 0 -15 0zM324.21 504.95 a7.5 7.5 0 1 0 15 0 a7.5 7.5 0 1 0 -15 0zM259.25 542.45 a7.5 7.5 0 1 0 15 0 a7.5 7.5 0 1 0 -15 0zM389.16 -57.55 a7.5 7.5 0 1 0 15 0 a7.5 7.5 0 1 0 -15 0zM454.12 -20.05 a7.5 7.5 0 1 0 15 0 a7.5 7.5 0 1 0 -15 0zM454.12 54.95 a7.5 7.5 0 1 0 15 0 a7.5 7.5 0 1 0 -15 0zM389.16 92.45 a7.5 7.5 0 1 0 15 0 a7.5 7.5 0 1 0 -15 0zM454.12 504.95 a7.5 7.5 0 1 0 15 0 a7.5 7.5 0 1 0 -15 0zM519.07 542.45 a7.5 7.5 0 1 0 15 0 a7.5 7.5 0 1 0 -15 0zM519.07 617.45 a7.5 7.5 0 1 0 15 0 a7.5 7.5 0 1 0 -15 0zM454.12 654.95 a7.5 7.5 0 1 0 15 0 a7.5 7.5 0 1 0 -15 0zM389.16 617.45 a7.5 7.5 0 1 0 15 0 a7.5 7.5 0 1 0 -15 0zM389.16 542.45 a7.5 7.5 0 1 0 15 0 a7.5 7.5 0 1 0 -15 0zM519.07 -57.55 a7.5 7.5 0 1 0 15 0 a7.5 7.5 0 1 0 -15 0zM584.02 -20.05 a7.5 7.5 0 1 0 15 0 a7.5 7.5 0 1 0 -15 0zM584.02 54.95 a7.5 7.5 0 1 0 15 0 a7.5 7.5 0 1 0 -15 0zM519.07 92.45 a7.5 7.5 0 1 0 15 0 a7.5 7.5 0 1 0 -15 0zM519.07 167.45 a7.5 7.5 0 1 0 15 0 a7.5 7.5 0 1 0 -15 0zM584.02 204.95 a7.5 7.5 0 1 0 15 0 a7.5 7.5 0 1 0 -15 0zM584.02 279.95 a7.5 7.5 0 1 0 15 0 a7.5 7.5 0 1 0 -15 0zM519.07 317.45 a7.5 7.5 0 1 0 15 0 a7.5 7.5 0 1 0 -15 0zM454.12 279.95 a7.5 7.5 0 1 0 15 0 a7.5 7.5 0 1 0 -15 0zM454.12 204.95 a7.5 7.5 0 1 0 15 0 a7.5 7.5 0 1 0 -15 0zM648.98 317.45 a7.5 7.5 0 1 0 15 0 a7.5 7.5 0 1 0 -15 0zM648.98 392.45 a7.5 7.5 0 1 0 15 0 a7.5 7.5 0 1 0 -15 0zM584.02 429.95 a7.5 7.5 0 1 0 15 0 a7.5 7.5 0 1 0 -15 0zM519.07 392.45 a7.5 7.5 0 1 0 15 0 a7.5 7.5 0 1 0 -15 0zM648.98 -57.55 a7.5 7.5 0 1 0 15 0 a7.5 7.5 0 1 0 -15 0zM713.93 -20.05 a7.5 7.5 0 1 0 15 0 a7.5 7.5 0 1 0 -15 0zM713.93 54.95 a7.5 7.5 0 1 0 15 0 a7.5 7.5 0 1 0 -15 0zM648.98 92.45 a7.5 7.5 0 1 0 15 0 a7.5 7.5 0 1 0 -15 0zM713.93 504.95 a7.5 7.5 0 1 0 15 0 a7.5 7.5 0 1 0 -15 0zM778.89 542.45 a7.5 7.5 0 1 0 15 0 a7.5 7.5 0 1 0 -15 0zM778.89 617.45 a7.5 7.5 0 1 0 15 0 a7.5 7.5 0 1 0 -15 0zM713.93 654.95 a7.5 7.5 0 1 0 15 0 a7.5 7.5 0 1 0 -15 0zM648.98 617.45 a7.5 7.5 0 1 0 15 0 a7.5 7.5 0 1 0 -15 0zM648.98 542.45 a7.5 7.5 0 1 0 15 0 a7.5 7.5 0 1 0 -15 0zM778.88 392.45 a7.5 7.5 0 1 0 15 0 a7.5 7.5 0 1 0 -15 0zM843.84 429.95 a7.5 7.5 0 1 0 15 0 a7.5 7.5 0 1 0 -15 0zM843.84 504.95 a7.5 7.5 0 1 0 15 0 a7.5 7.5 0 1 0 -15 0zM778.88 542.45 a7.5 7.5 0 1 0 15 0 a7.5 7.5 0 1 0 -15 0zM713.93 429.95 a7.5 7.5 0 1 0 15 0 a7.5 7.5 0 1 0 -15 0zM908.79 542.45 a7.5 7.5 0 1 0 15 0 a7.5 7.5 0 1 0 -15 0zM908.79 617.45 a7.5 7.5 0 1 0 15 0 a7.5 7.5 0 1 0 -15 0zM843.84 654.95 a7.5 7.5 0 1 0 15 0 a7.5 7.5 0 1 0 -15 0zM778.88 617.45 a7.5 7.5 0 1 0 15 0 a7.5 7.5 0 1 0 -15 0zM1038.7 167.45 a7.5 7.5 0 1 0 15 0 a7.5 7.5 0 1 0 -15 0zM1103.65 204.95 a7.5 7.5 0 1 0 15 0 a7.5 7.5 0 1 0 -15 0zM1103.65 279.95 a7.5 7.5 0 1 0 15 0 a7.5 7.5 0 1 0 -15 0zM1038.7 317.45 a7.5 7.5 0 1 0 15 0 a7.5 7.5 0 1 0 -15 0zM973.75 279.95 a7.5 7.5 0 1 0 15 0 a7.5 7.5 0 1 0 -15 0zM973.75 204.95 a7.5 7.5 0 1 0 15 0 a7.5 7.5 0 1 0 -15 0zM1038.7 392.45 a7.5 7.5 0 1 0 15 0 a7.5 7.5 0 1 0 -15 0zM1103.65 429.95 a7.5 7.5 0 1 0 15 0 a7.5 7.5 0 1 0 -15 0zM1103.65 504.95 a7.5 7.5 0 1 0 15 0 a7.5 7.5 0 1 0 -15 0zM1038.7 542.45 a7.5 7.5 0 1 0 15 0 a7.5 7.5 0 1 0 -15 0zM973.75 504.95 a7.5 7.5 0 1 0 15 0 a7.5 7.5 0 1 0 -15 0zM973.75 429.95 a7.5 7.5 0 1 0 15 0 a7.5 7.5 0 1 0 -15 0zM1168.61 -57.55 a7.5 7.5 0 1 0 15 0 a7.5 7.5 0 1 0 -15 0zM1233.56 -20.05 a7.5 7.5 0 1 0 15 0 a7.5 7.5 0 1 0 -15 0zM1233.56 54.95 a7.5 7.5 0 1 0 15 0 a7.5 7.5 0 1 0 -15 0zM1168.61 92.45 a7.5 7.5 0 1 0 15 0 a7.5 7.5 0 1 0 -15 0zM1103.65 54.95 a7.5 7.5 0 1 0 15 0 a7.5 7.5 0 1 0 -15 0zM1103.65 -20.05 a7.5 7.5 0 1 0 15 0 a7.5 7.5 0 1 0 -15 0zM1298.51 92.45 a7.5 7.5 0 1 0 15 0 a7.5 7.5 0 1 0 -15 0zM1298.51 167.45 a7.5 7.5 0 1 0 15 0 a7.5 7.5 0 1 0 -15 0zM1233.56 204.95 a7.5 7.5 0 1 0 15 0 a7.5 7.5 0 1 0 -15 0zM1168.61 167.45 a7.5 7.5 0 1 0 15 0 a7.5 7.5 0 1 0 -15 0zM1233.56 279.95 a7.5 7.5 0 1 0 15 0 a7.5 7.5 0 1 0 -15 0zM1298.51 317.45 a7.5 7.5 0 1 0 15 0 a7.5 7.5 0 1 0 -15 0zM1298.51 392.45 a7.5 7.5 0 1 0 15 0 a7.5 7.5 0 1 0 -15 0zM1233.56 429.95 a7.5 7.5 0 1 0 15 0 a7.5 7.5 0 1 0 -15 0zM1168.61 392.45 a7.5 7.5 0 1 0 15 0 a7.5 7.5 0 1 0 -15 0zM1168.61 317.45 a7.5 7.5 0 1 0 15 0 a7.5 7.5 0 1 0 -15 0zM1233.56 504.95 a7.5 7.5 0 1 0 15 0 a7.5 7.5 0 1 0 -15 0zM1168.61 542.45 a7.5 7.5 0 1 0 15 0 a7.5 7.5 0 1 0 -15 0zM1298.51 542.45 a7.5 7.5 0 1 0 15 0 a7.5 7.5 0 1 0 -15 0zM1298.51 617.45 a7.5 7.5 0 1 0 15 0 a7.5 7.5 0 1 0 -15 0zM1233.56 654.95 a7.5 7.5 0 1 0 15 0 a7.5 7.5 0 1 0 -15 0zM1168.61 617.45 a7.5 7.5 0 1 0 15 0 a7.5 7.5 0 1 0 -15 0zM1428.42 -57.55 a7.5 7.5 0 1 0 15 0 a7.5 7.5 0 1 0 -15 0zM1493.38 -20.05 a7.5 7.5 0 1 0 15 0 a7.5 7.5 0 1 0 -15 0zM1493.38 54.95 a7.5 7.5 0 1 0 15 0 a7.5 7.5 0 1 0 -15 0zM1428.42 92.45 a7.5 7.5 0 1 0 15 0 a7.5 7.5 0 1 0 -15 0zM1363.47 54.95 a7.5 7.5 0 1 0 15 0 a7.5 7.5 0 1 0 -15 0zM1363.47 -20.05 a7.5 7.5 0 1 0 15 0 a7.5 7.5 0 1 0 -15 0zM1428.42 167.45 a7.5 7.5 0 1 0 15 0 a7.5 7.5 0 1 0 -15 0zM1493.38 204.95 a7.5 7.5 0 1 0 15 0 a7.5 7.5 0 1 0 -15 0zM1493.38 279.95 a7.5 7.5 0 1 0 15 0 a7.5 7.5 0 1 0 -15 0zM1428.42 317.45 a7.5 7.5 0 1 0 15 0 a7.5 7.5 0 1 0 -15 0zM1363.47 279.95 a7.5 7.5 0 1 0 15 0 a7.5 7.5 0 1 0 -15 0zM1363.47 204.95 a7.5 7.5 0 1 0 15 0 a7.5 7.5 0 1 0 -15 0zM1558.33 317.45 a7.5 7.5 0 1 0 15 0 a7.5 7.5 0 1 0 -15 0zM1558.33 392.45 a7.5 7.5 0 1 0 15 0 a7.5 7.5 0 1 0 -15 0zM1493.38 429.95 a7.5 7.5 0 1 0 15 0 a7.5 7.5 0 1 0 -15 0zM1428.42 392.45 a7.5 7.5 0 1 0 15 0 a7.5 7.5 0 1 0 -15 0z" fill="rgba(127, 157, 188, 1)"></path><path d="M110.87 46.89L172.36 82.39L172.36 153.39L110.87 188.89L49.38 153.39L49.38 82.39zM49.38 153.39L110.87 188.89L110.87 259.89L49.38 295.39L-12.11 259.89L-12.11 188.89zM172.36 -59.61L233.85 -24.11L233.85 46.89L172.36 82.39L110.87 46.89L110.87 -24.11zM233.85 46.89L295.34 82.39L295.34 153.39L233.85 188.89L172.36 153.39L172.36 82.39zM233.85 259.89L295.34 295.39L295.34 366.39L233.85 401.89L172.36 366.39L172.36 295.39zM172.36 366.39L233.85 401.89L233.85 472.89L172.36 508.39L110.87 472.89L110.87 401.89zM295.34 -59.61L356.83 -24.11L356.83 46.89L295.34 82.39L233.85 46.89L233.85 -24.11zM295.34 153.39L356.83 188.89L356.83 259.89L295.34 295.39L233.85 259.89L233.85 188.89zM418.32 -59.61L479.81 -24.11L479.81 46.89L418.32 82.39L356.83 46.89L356.83 -24.11zM479.81 472.89L541.3 508.39L541.3 579.39L479.81 614.89L418.32 579.39L418.32 508.39zM602.79 46.89L664.28 82.39L664.28 153.39L602.79 188.89L541.3 153.39L541.3 82.39zM725.77 259.89L787.25 295.39L787.25 366.39L725.77 401.89L664.28 366.39L664.28 295.39zM787.25 -59.61L848.74 -24.11L848.74 46.89L787.25 82.39L725.77 46.89L725.77 -24.11zM848.74 259.89L910.23 295.39L910.23 366.39L848.74 401.89L787.25 366.39L787.25 295.39zM787.25 366.39L848.74 401.89L848.74 472.89L787.25 508.39L725.77 472.89L725.77 401.89zM848.74 472.89L910.23 508.39L910.23 579.39L848.74 614.89L787.25 579.39L787.25 508.39zM910.23 153.39L971.72 188.89L971.72 259.89L910.23 295.39L848.74 259.89L848.74 188.89zM910.23 366.39L971.72 401.89L971.72 472.89L910.23 508.39L848.74 472.89L848.74 401.89zM1094.7 46.89L1156.19 82.39L1156.19 153.39L1094.7 188.89L1033.21 153.39L1033.21 82.39zM1033.21 153.39L1094.7 188.89L1094.7 259.89L1033.21 295.39L971.72 259.89L971.72 188.89zM1033.21 366.39L1094.7 401.89L1094.7 472.89L1033.21 508.39L971.72 472.89L971.72 401.89zM1217.68 46.89L1279.17 82.39L1279.17 153.39L1217.68 188.89L1156.19 153.39L1156.19 82.39zM1156.19 366.39L1217.68 401.89L1217.68 472.89L1156.19 508.39L1094.7 472.89L1094.7 401.89zM1402.15 -59.61L1463.64 -24.11L1463.64 46.89L1402.15 82.39L1340.66 46.89L1340.66 -24.11zM1463.64 46.89L1525.13 82.39L1525.13 153.39L1463.64 188.89L1402.15 153.39L1402.15 82.39zM1402.15 366.39L1463.64 401.89L1463.64 472.89L1402.15 508.39L1340.66 472.89L1340.66 401.89z" stroke="rgba(219, 219, 219, 0.93)" stroke-width="2"></path></g><defs><mask id="SvgjsMask1038"><rect width="1440" height="560" fill="#ffffff"></rect></mask></defs></svg>