<svg xmlns="http://www.w3.org/2000/svg" version="1.1" xmlns:xlink="http://www.w3.org/1999/xlink" xmlns:svgjs="http://svgjs.com/svgjs" width="1920" height="1080" preserveAspectRatio="none" viewBox="0 0 1920 1080">
    <g mask="url(&quot;#SvgjsMask1001&quot;)" fill="none">
        <rect width="1920" height="1080" x="0" y="0" fill="rgba(255, 255, 255, 1)"></rect>
        <path d="M60.07 -27.52L125.89 10.48L125.89 86.48L60.07 124.48L-5.75 86.48L-5.75 10.48zM60.07 656.48L125.89 694.48L125.89 770.48L60.07 808.48L-5.75 770.48L-5.75 694.48zM125.89 770.48L191.71 808.48L191.71 884.48L125.89 922.48L60.07 884.48L60.07 808.48zM191.71 200.48L257.53 238.48L257.53 314.48L191.71 352.48L125.89 314.48L125.89 238.48zM191.71 428.48L257.53 466.48L257.53 542.48L191.71 580.48L125.89 542.48L125.89 466.48zM257.53 542.48L323.35 580.48L323.35 656.48L257.53 694.48L191.71 656.48L191.71 580.48zM257.53 998.48L323.35 1036.48L323.35 1112.48L257.53 1150.48L191.71 1112.48L191.71 1036.48zM389.17 770.48L454.99 808.48L454.99 884.48L389.17 922.48L323.35 884.48L323.35 808.48zM454.99 200.48L520.81 238.48L520.81 314.48L454.99 352.48L389.17 314.48L389.17 238.48zM520.81 998.48L586.63 1036.48L586.63 1112.48L520.81 1150.48L454.99 1112.48L454.99 1036.48zM652.45 770.48L718.27 808.48L718.27 884.48L652.45 922.48L586.63 884.48L586.63 808.48zM718.27 428.48L784.09 466.48L784.09 542.48L718.27 580.48L652.45 542.48L652.45 466.48zM718.27 884.48L784.09 922.48L784.09 998.48L718.27 1036.48L652.45 998.48L652.45 922.48zM849.91 -27.52L915.73 10.48L915.73 86.48L849.91 124.48L784.09 86.48L784.09 10.48zM915.73 314.48L981.55 352.48L981.55 428.48L915.73 466.48L849.91 428.48L849.91 352.48zM915.73 542.48L981.55 580.48L981.55 656.48L915.73 694.48L849.91 656.48L849.91 580.48zM849.91 656.48L915.73 694.48L915.73 770.48L849.91 808.48L784.09 770.48L784.09 694.48zM1047.37 542.48L1113.19 580.48L1113.19 656.48L1047.37 694.48L981.55 656.48L981.55 580.48zM981.55 656.48L1047.37 694.48L1047.37 770.48L981.55 808.48L915.73 770.48L915.73 694.48zM1047.37 770.48L1113.19 808.48L1113.19 884.48L1047.37 922.48L981.55 884.48L981.55 808.48zM1179.01 314.48L1244.83 352.48L1244.83 428.48L1179.01 466.48L1113.19 428.48L1113.19 352.48zM1113.19 428.48L1179.01 466.48L1179.01 542.48L1113.19 580.48L1047.37 542.48L1047.37 466.48zM1244.83 -27.52L1310.65 10.48L1310.65 86.48L1244.83 124.48L1179.01 86.48L1179.01 10.48zM1310.65 770.48L1376.47 808.48L1376.47 884.48L1310.65 922.48L1244.83 884.48L1244.83 808.48zM1442.29 314.48L1508.11 352.48L1508.11 428.48L1442.29 466.48L1376.47 428.48L1376.47 352.48zM1376.47 656.48L1442.29 694.48L1442.29 770.48L1376.47 808.48L1310.65 770.48L1310.65 694.48zM1376.47 884.48L1442.29 922.48L1442.29 998.48L1376.47 1036.48L1310.65 998.48L1310.65 922.48zM1442.29 998.48L1508.11 1036.48L1508.11 1112.48L1442.29 1150.48L1376.47 1112.48L1376.47 1036.48zM1573.93 86.48L1639.75 124.48L1639.75 200.48L1573.93 238.48L1508.11 200.48L1508.11 124.48zM1573.93 770.48L1639.75 808.48L1639.75 884.48L1573.93 922.48L1508.11 884.48L1508.11 808.48zM1705.57 770.48L1771.38 808.48L1771.38 884.48L1705.57 922.48L1639.75 884.48L1639.75 808.48zM1639.75 884.48L1705.57 922.48L1705.57 998.48L1639.75 1036.48L1573.93 998.48L1573.93 922.48zM1771.38 -27.52L1837.2 10.48L1837.2 86.48L1771.38 124.48L1705.57 86.48L1705.57 10.48zM1837.2 542.48L1903.02 580.48L1903.02 656.48L1837.2 694.48L1771.38 656.48L1771.38 580.48zM1968.84 86.48L2034.66 124.48L2034.66 200.48L1968.84 238.48L1903.02 200.48L1903.02 124.48zM1903.02 656.48L1968.84 694.48L1968.84 770.48L1903.02 808.48L1837.2 770.48L1837.2 694.48zM1903.02 884.48L1968.84 922.48L1968.84 998.48L1903.02 1036.48L1837.2 998.48L1837.2 922.48z" stroke="rgba(185, 191, 255, 0.2)" stroke-width="2"></path>
        <path d="M52.47 -27.52 a7.6 7.6 0 1 0 15.2 0 a7.6 7.6 0 1 0 -15.2 0zM118.29 10.48 a7.6 7.6 0 1 0 15.2 0 a7.6 7.6 0 1 0 -15.2 0zM118.29 86.48 a7.6 7.6 0 1 0 15.2 0 a7.6 7.6 0 1 0 -15.2 0zM52.47 124.48 a7.6 7.6 0 1 0 15.2 0 a7.6 7.6 0 1 0 -15.2 0zM-13.35 86.48 a7.6 7.6 0 1 0 15.2 0 a7.6 7.6 0 1 0 -15.2 0zM-13.35 10.48 a7.6 7.6 0 1 0 15.2 0 a7.6 7.6 0 1 0 -15.2 0zM52.47 656.48 a7.6 7.6 0 1 0 15.2 0 a7.6 7.6 0 1 0 -15.2 0zM118.29 694.48 a7.6 7.6 0 1 0 15.2 0 a7.6 7.6 0 1 0 -15.2 0zM118.29 770.48 a7.6 7.6 0 1 0 15.2 0 a7.6 7.6 0 1 0 -15.2 0zM52.47 808.48 a7.6 7.6 0 1 0 15.2 0 a7.6 7.6 0 1 0 -15.2 0zM-13.35 770.48 a7.6 7.6 0 1 0 15.2 0 a7.6 7.6 0 1 0 -15.2 0zM-13.35 694.48 a7.6 7.6 0 1 0 15.2 0 a7.6 7.6 0 1 0 -15.2 0zM184.11 808.48 a7.6 7.6 0 1 0 15.2 0 a7.6 7.6 0 1 0 -15.2 0zM184.11 884.48 a7.6 7.6 0 1 0 15.2 0 a7.6 7.6 0 1 0 -15.2 0zM118.29 922.48 a7.6 7.6 0 1 0 15.2 0 a7.6 7.6 0 1 0 -15.2 0zM52.47 884.48 a7.6 7.6 0 1 0 15.2 0 a7.6 7.6 0 1 0 -15.2 0zM184.11 200.48 a7.6 7.6 0 1 0 15.2 0 a7.6 7.6 0 1 0 -15.2 0zM249.93 238.48 a7.6 7.6 0 1 0 15.2 0 a7.6 7.6 0 1 0 -15.2 0zM249.93 314.48 a7.6 7.6 0 1 0 15.2 0 a7.6 7.6 0 1 0 -15.2 0zM184.11 352.48 a7.6 7.6 0 1 0 15.2 0 a7.6 7.6 0 1 0 -15.2 0zM118.29 314.48 a7.6 7.6 0 1 0 15.2 0 a7.6 7.6 0 1 0 -15.2 0zM118.29 238.48 a7.6 7.6 0 1 0 15.2 0 a7.6 7.6 0 1 0 -15.2 0zM184.11 428.48 a7.6 7.6 0 1 0 15.2 0 a7.6 7.6 0 1 0 -15.2 0zM249.93 466.48 a7.6 7.6 0 1 0 15.2 0 a7.6 7.6 0 1 0 -15.2 0zM249.93 542.48 a7.6 7.6 0 1 0 15.2 0 a7.6 7.6 0 1 0 -15.2 0zM184.11 580.48 a7.6 7.6 0 1 0 15.2 0 a7.6 7.6 0 1 0 -15.2 0zM118.29 542.48 a7.6 7.6 0 1 0 15.2 0 a7.6 7.6 0 1 0 -15.2 0zM118.29 466.48 a7.6 7.6 0 1 0 15.2 0 a7.6 7.6 0 1 0 -15.2 0zM315.75 580.48 a7.6 7.6 0 1 0 15.2 0 a7.6 7.6 0 1 0 -15.2 0zM315.75 656.48 a7.6 7.6 0 1 0 15.2 0 a7.6 7.6 0 1 0 -15.2 0zM249.93 694.48 a7.6 7.6 0 1 0 15.2 0 a7.6 7.6 0 1 0 -15.2 0zM184.11 656.48 a7.6 7.6 0 1 0 15.2 0 a7.6 7.6 0 1 0 -15.2 0zM249.93 998.48 a7.6 7.6 0 1 0 15.2 0 a7.6 7.6 0 1 0 -15.2 0zM315.75 1036.48 a7.6 7.6 0 1 0 15.2 0 a7.6 7.6 0 1 0 -15.2 0zM315.75 1112.48 a7.6 7.6 0 1 0 15.2 0 a7.6 7.6 0 1 0 -15.2 0zM249.93 1150.48 a7.6 7.6 0 1 0 15.2 0 a7.6 7.6 0 1 0 -15.2 0zM184.11 1112.48 a7.6 7.6 0 1 0 15.2 0 a7.6 7.6 0 1 0 -15.2 0zM184.11 1036.48 a7.6 7.6 0 1 0 15.2 0 a7.6 7.6 0 1 0 -15.2 0zM381.57 770.48 a7.6 7.6 0 1 0 15.2 0 a7.6 7.6 0 1 0 -15.2 0zM447.39 808.48 a7.6 7.6 0 1 0 15.2 0 a7.6 7.6 0 1 0 -15.2 0zM447.39 884.48 a7.6 7.6 0 1 0 15.2 0 a7.6 7.6 0 1 0 -15.2 0zM381.57 922.48 a7.6 7.6 0 1 0 15.2 0 a7.6 7.6 0 1 0 -15.2 0zM315.75 884.48 a7.6 7.6 0 1 0 15.2 0 a7.6 7.6 0 1 0 -15.2 0zM315.75 808.48 a7.6 7.6 0 1 0 15.2 0 a7.6 7.6 0 1 0 -15.2 0zM447.39 200.48 a7.6 7.6 0 1 0 15.2 0 a7.6 7.6 0 1 0 -15.2 0zM513.21 238.48 a7.6 7.6 0 1 0 15.2 0 a7.6 7.6 0 1 0 -15.2 0zM513.21 314.48 a7.6 7.6 0 1 0 15.2 0 a7.6 7.6 0 1 0 -15.2 0zM447.39 352.48 a7.6 7.6 0 1 0 15.2 0 a7.6 7.6 0 1 0 -15.2 0zM381.57 314.48 a7.6 7.6 0 1 0 15.2 0 a7.6 7.6 0 1 0 -15.2 0zM381.57 238.48 a7.6 7.6 0 1 0 15.2 0 a7.6 7.6 0 1 0 -15.2 0zM513.21 998.48 a7.6 7.6 0 1 0 15.2 0 a7.6 7.6 0 1 0 -15.2 0zM579.03 1036.48 a7.6 7.6 0 1 0 15.2 0 a7.6 7.6 0 1 0 -15.2 0zM579.03 1112.48 a7.6 7.6 0 1 0 15.2 0 a7.6 7.6 0 1 0 -15.2 0zM513.21 1150.48 a7.6 7.6 0 1 0 15.2 0 a7.6 7.6 0 1 0 -15.2 0zM447.39 1112.48 a7.6 7.6 0 1 0 15.2 0 a7.6 7.6 0 1 0 -15.2 0zM447.39 1036.48 a7.6 7.6 0 1 0 15.2 0 a7.6 7.6 0 1 0 -15.2 0zM644.85 770.48 a7.6 7.6 0 1 0 15.2 0 a7.6 7.6 0 1 0 -15.2 0zM710.67 808.48 a7.6 7.6 0 1 0 15.2 0 a7.6 7.6 0 1 0 -15.2 0zM710.67 884.48 a7.6 7.6 0 1 0 15.2 0 a7.6 7.6 0 1 0 -15.2 0zM644.85 922.48 a7.6 7.6 0 1 0 15.2 0 a7.6 7.6 0 1 0 -15.2 0zM579.03 884.48 a7.6 7.6 0 1 0 15.2 0 a7.6 7.6 0 1 0 -15.2 0zM579.03 808.48 a7.6 7.6 0 1 0 15.2 0 a7.6 7.6 0 1 0 -15.2 0zM710.67 428.48 a7.6 7.6 0 1 0 15.2 0 a7.6 7.6 0 1 0 -15.2 0zM776.49 466.48 a7.6 7.6 0 1 0 15.2 0 a7.6 7.6 0 1 0 -15.2 0zM776.49 542.48 a7.6 7.6 0 1 0 15.2 0 a7.6 7.6 0 1 0 -15.2 0zM710.67 580.48 a7.6 7.6 0 1 0 15.2 0 a7.6 7.6 0 1 0 -15.2 0zM644.85 542.48 a7.6 7.6 0 1 0 15.2 0 a7.6 7.6 0 1 0 -15.2 0zM644.85 466.48 a7.6 7.6 0 1 0 15.2 0 a7.6 7.6 0 1 0 -15.2 0zM776.49 922.48 a7.6 7.6 0 1 0 15.2 0 a7.6 7.6 0 1 0 -15.2 0zM776.49 998.48 a7.6 7.6 0 1 0 15.2 0 a7.6 7.6 0 1 0 -15.2 0zM710.67 1036.48 a7.6 7.6 0 1 0 15.2 0 a7.6 7.6 0 1 0 -15.2 0zM644.85 998.48 a7.6 7.6 0 1 0 15.2 0 a7.6 7.6 0 1 0 -15.2 0zM842.31 -27.52 a7.6 7.6 0 1 0 15.2 0 a7.6 7.6 0 1 0 -15.2 0zM908.13 10.48 a7.6 7.6 0 1 0 15.2 0 a7.6 7.6 0 1 0 -15.2 0zM908.13 86.48 a7.6 7.6 0 1 0 15.2 0 a7.6 7.6 0 1 0 -15.2 0zM842.31 124.48 a7.6 7.6 0 1 0 15.2 0 a7.6 7.6 0 1 0 -15.2 0zM776.49 86.48 a7.6 7.6 0 1 0 15.2 0 a7.6 7.6 0 1 0 -15.2 0zM776.49 10.48 a7.6 7.6 0 1 0 15.2 0 a7.6 7.6 0 1 0 -15.2 0zM908.13 314.48 a7.6 7.6 0 1 0 15.2 0 a7.6 7.6 0 1 0 -15.2 0zM973.95 352.48 a7.6 7.6 0 1 0 15.2 0 a7.6 7.6 0 1 0 -15.2 0zM973.95 428.48 a7.6 7.6 0 1 0 15.2 0 a7.6 7.6 0 1 0 -15.2 0zM908.13 466.48 a7.6 7.6 0 1 0 15.2 0 a7.6 7.6 0 1 0 -15.2 0zM842.31 428.48 a7.6 7.6 0 1 0 15.2 0 a7.6 7.6 0 1 0 -15.2 0zM842.31 352.48 a7.6 7.6 0 1 0 15.2 0 a7.6 7.6 0 1 0 -15.2 0zM908.13 542.48 a7.6 7.6 0 1 0 15.2 0 a7.6 7.6 0 1 0 -15.2 0zM973.95 580.48 a7.6 7.6 0 1 0 15.2 0 a7.6 7.6 0 1 0 -15.2 0zM973.95 656.48 a7.6 7.6 0 1 0 15.2 0 a7.6 7.6 0 1 0 -15.2 0zM908.13 694.48 a7.6 7.6 0 1 0 15.2 0 a7.6 7.6 0 1 0 -15.2 0zM842.31 656.48 a7.6 7.6 0 1 0 15.2 0 a7.6 7.6 0 1 0 -15.2 0zM842.31 580.48 a7.6 7.6 0 1 0 15.2 0 a7.6 7.6 0 1 0 -15.2 0zM908.13 770.48 a7.6 7.6 0 1 0 15.2 0 a7.6 7.6 0 1 0 -15.2 0zM842.31 808.48 a7.6 7.6 0 1 0 15.2 0 a7.6 7.6 0 1 0 -15.2 0zM776.49 770.48 a7.6 7.6 0 1 0 15.2 0 a7.6 7.6 0 1 0 -15.2 0zM776.49 694.48 a7.6 7.6 0 1 0 15.2 0 a7.6 7.6 0 1 0 -15.2 0zM1039.77 542.48 a7.6 7.6 0 1 0 15.2 0 a7.6 7.6 0 1 0 -15.2 0zM1105.59 580.48 a7.6 7.6 0 1 0 15.2 0 a7.6 7.6 0 1 0 -15.2 0zM1105.59 656.48 a7.6 7.6 0 1 0 15.2 0 a7.6 7.6 0 1 0 -15.2 0zM1039.77 694.48 a7.6 7.6 0 1 0 15.2 0 a7.6 7.6 0 1 0 -15.2 0zM1039.77 770.48 a7.6 7.6 0 1 0 15.2 0 a7.6 7.6 0 1 0 -15.2 0zM973.95 808.48 a7.6 7.6 0 1 0 15.2 0 a7.6 7.6 0 1 0 -15.2 0zM1105.59 808.48 a7.6 7.6 0 1 0 15.2 0 a7.6 7.6 0 1 0 -15.2 0zM1105.59 884.48 a7.6 7.6 0 1 0 15.2 0 a7.6 7.6 0 1 0 -15.2 0zM1039.77 922.48 a7.6 7.6 0 1 0 15.2 0 a7.6 7.6 0 1 0 -15.2 0zM973.95 884.48 a7.6 7.6 0 1 0 15.2 0 a7.6 7.6 0 1 0 -15.2 0zM1171.41 314.48 a7.6 7.6 0 1 0 15.2 0 a7.6 7.6 0 1 0 -15.2 0zM1237.23 352.48 a7.6 7.6 0 1 0 15.2 0 a7.6 7.6 0 1 0 -15.2 0zM1237.23 428.48 a7.6 7.6 0 1 0 15.2 0 a7.6 7.6 0 1 0 -15.2 0zM1171.41 466.48 a7.6 7.6 0 1 0 15.2 0 a7.6 7.6 0 1 0 -15.2 0zM1105.59 428.48 a7.6 7.6 0 1 0 15.2 0 a7.6 7.6 0 1 0 -15.2 0zM1105.59 352.48 a7.6 7.6 0 1 0 15.2 0 a7.6 7.6 0 1 0 -15.2 0zM1171.41 542.48 a7.6 7.6 0 1 0 15.2 0 a7.6 7.6 0 1 0 -15.2 0zM1039.77 466.48 a7.6 7.6 0 1 0 15.2 0 a7.6 7.6 0 1 0 -15.2 0zM1237.23 -27.52 a7.6 7.6 0 1 0 15.2 0 a7.6 7.6 0 1 0 -15.2 0zM1303.05 10.48 a7.6 7.6 0 1 0 15.2 0 a7.6 7.6 0 1 0 -15.2 0zM1303.05 86.48 a7.6 7.6 0 1 0 15.2 0 a7.6 7.6 0 1 0 -15.2 0zM1237.23 124.48 a7.6 7.6 0 1 0 15.2 0 a7.6 7.6 0 1 0 -15.2 0zM1171.41 86.48 a7.6 7.6 0 1 0 15.2 0 a7.6 7.6 0 1 0 -15.2 0zM1171.41 10.48 a7.6 7.6 0 1 0 15.2 0 a7.6 7.6 0 1 0 -15.2 0zM1303.05 770.48 a7.6 7.6 0 1 0 15.2 0 a7.6 7.6 0 1 0 -15.2 0zM1368.87 808.48 a7.6 7.6 0 1 0 15.2 0 a7.6 7.6 0 1 0 -15.2 0zM1368.87 884.48 a7.6 7.6 0 1 0 15.2 0 a7.6 7.6 0 1 0 -15.2 0zM1303.05 922.48 a7.6 7.6 0 1 0 15.2 0 a7.6 7.6 0 1 0 -15.2 0zM1237.23 884.48 a7.6 7.6 0 1 0 15.2 0 a7.6 7.6 0 1 0 -15.2 0zM1237.23 808.48 a7.6 7.6 0 1 0 15.2 0 a7.6 7.6 0 1 0 -15.2 0zM1434.69 314.48 a7.6 7.6 0 1 0 15.2 0 a7.6 7.6 0 1 0 -15.2 0zM1500.51 352.48 a7.6 7.6 0 1 0 15.2 0 a7.6 7.6 0 1 0 -15.2 0zM1500.51 428.48 a7.6 7.6 0 1 0 15.2 0 a7.6 7.6 0 1 0 -15.2 0zM1434.69 466.48 a7.6 7.6 0 1 0 15.2 0 a7.6 7.6 0 1 0 -15.2 0zM1368.87 428.48 a7.6 7.6 0 1 0 15.2 0 a7.6 7.6 0 1 0 -15.2 0zM1368.87 352.48 a7.6 7.6 0 1 0 15.2 0 a7.6 7.6 0 1 0 -15.2 0zM1368.87 656.48 a7.6 7.6 0 1 0 15.2 0 a7.6 7.6 0 1 0 -15.2 0zM1434.69 694.48 a7.6 7.6 0 1 0 15.2 0 a7.6 7.6 0 1 0 -15.2 0zM1434.69 770.48 a7.6 7.6 0 1 0 15.2 0 a7.6 7.6 0 1 0 -15.2 0zM1303.05 694.48 a7.6 7.6 0 1 0 15.2 0 a7.6 7.6 0 1 0 -15.2 0zM1434.69 922.48 a7.6 7.6 0 1 0 15.2 0 a7.6 7.6 0 1 0 -15.2 0zM1434.69 998.48 a7.6 7.6 0 1 0 15.2 0 a7.6 7.6 0 1 0 -15.2 0zM1368.87 1036.48 a7.6 7.6 0 1 0 15.2 0 a7.6 7.6 0 1 0 -15.2 0zM1303.05 998.48 a7.6 7.6 0 1 0 15.2 0 a7.6 7.6 0 1 0 -15.2 0zM1500.51 1036.48 a7.6 7.6 0 1 0 15.2 0 a7.6 7.6 0 1 0 -15.2 0zM1500.51 1112.48 a7.6 7.6 0 1 0 15.2 0 a7.6 7.6 0 1 0 -15.2 0zM1434.69 1150.48 a7.6 7.6 0 1 0 15.2 0 a7.6 7.6 0 1 0 -15.2 0zM1368.87 1112.48 a7.6 7.6 0 1 0 15.2 0 a7.6 7.6 0 1 0 -15.2 0zM1566.33 86.48 a7.6 7.6 0 1 0 15.2 0 a7.6 7.6 0 1 0 -15.2 0zM1632.15 124.48 a7.6 7.6 0 1 0 15.2 0 a7.6 7.6 0 1 0 -15.2 0zM1632.15 200.48 a7.6 7.6 0 1 0 15.2 0 a7.6 7.6 0 1 0 -15.2 0zM1566.33 238.48 a7.6 7.6 0 1 0 15.2 0 a7.6 7.6 0 1 0 -15.2 0zM1500.51 200.48 a7.6 7.6 0 1 0 15.2 0 a7.6 7.6 0 1 0 -15.2 0zM1500.51 124.48 a7.6 7.6 0 1 0 15.2 0 a7.6 7.6 0 1 0 -15.2 0zM1566.33 770.48 a7.6 7.6 0 1 0 15.2 0 a7.6 7.6 0 1 0 -15.2 0zM1632.15 808.48 a7.6 7.6 0 1 0 15.2 0 a7.6 7.6 0 1 0 -15.2 0zM1632.15 884.48 a7.6 7.6 0 1 0 15.2 0 a7.6 7.6 0 1 0 -15.2 0zM1566.33 922.48 a7.6 7.6 0 1 0 15.2 0 a7.6 7.6 0 1 0 -15.2 0zM1500.51 884.48 a7.6 7.6 0 1 0 15.2 0 a7.6 7.6 0 1 0 -15.2 0zM1500.51 808.48 a7.6 7.6 0 1 0 15.2 0 a7.6 7.6 0 1 0 -15.2 0zM1697.97 770.48 a7.6 7.6 0 1 0 15.2 0 a7.6 7.6 0 1 0 -15.2 0zM1763.78 808.48 a7.6 7.6 0 1 0 15.2 0 a7.6 7.6 0 1 0 -15.2 0zM1763.78 884.48 a7.6 7.6 0 1 0 15.2 0 a7.6 7.6 0 1 0 -15.2 0zM1697.97 922.48 a7.6 7.6 0 1 0 15.2 0 a7.6 7.6 0 1 0 -15.2 0zM1697.97 998.48 a7.6 7.6 0 1 0 15.2 0 a7.6 7.6 0 1 0 -15.2 0zM1632.15 1036.48 a7.6 7.6 0 1 0 15.2 0 a7.6 7.6 0 1 0 -15.2 0zM1566.33 998.48 a7.6 7.6 0 1 0 15.2 0 a7.6 7.6 0 1 0 -15.2 0zM1763.78 -27.52 a7.6 7.6 0 1 0 15.2 0 a7.6 7.6 0 1 0 -15.2 0zM1829.6 10.48 a7.6 7.6 0 1 0 15.2 0 a7.6 7.6 0 1 0 -15.2 0zM1829.6 86.48 a7.6 7.6 0 1 0 15.2 0 a7.6 7.6 0 1 0 -15.2 0zM1763.78 124.48 a7.6 7.6 0 1 0 15.2 0 a7.6 7.6 0 1 0 -15.2 0zM1697.97 86.48 a7.6 7.6 0 1 0 15.2 0 a7.6 7.6 0 1 0 -15.2 0zM1697.97 10.48 a7.6 7.6 0 1 0 15.2 0 a7.6 7.6 0 1 0 -15.2 0zM1829.6 542.48 a7.6 7.6 0 1 0 15.2 0 a7.6 7.6 0 1 0 -15.2 0zM1895.42 580.48 a7.6 7.6 0 1 0 15.2 0 a7.6 7.6 0 1 0 -15.2 0zM1895.42 656.48 a7.6 7.6 0 1 0 15.2 0 a7.6 7.6 0 1 0 -15.2 0zM1829.6 694.48 a7.6 7.6 0 1 0 15.2 0 a7.6 7.6 0 1 0 -15.2 0zM1763.78 656.48 a7.6 7.6 0 1 0 15.2 0 a7.6 7.6 0 1 0 -15.2 0zM1763.78 580.48 a7.6 7.6 0 1 0 15.2 0 a7.6 7.6 0 1 0 -15.2 0zM1961.24 86.48 a7.6 7.6 0 1 0 15.2 0 a7.6 7.6 0 1 0 -15.2 0zM2027.06 124.48 a7.6 7.6 0 1 0 15.2 0 a7.6 7.6 0 1 0 -15.2 0zM2027.06 200.48 a7.6 7.6 0 1 0 15.2 0 a7.6 7.6 0 1 0 -15.2 0zM1961.24 238.48 a7.6 7.6 0 1 0 15.2 0 a7.6 7.6 0 1 0 -15.2 0zM1895.42 200.48 a7.6 7.6 0 1 0 15.2 0 a7.6 7.6 0 1 0 -15.2 0zM1895.42 124.48 a7.6 7.6 0 1 0 15.2 0 a7.6 7.6 0 1 0 -15.2 0zM1961.24 694.48 a7.6 7.6 0 1 0 15.2 0 a7.6 7.6 0 1 0 -15.2 0zM1961.24 770.48 a7.6 7.6 0 1 0 15.2 0 a7.6 7.6 0 1 0 -15.2 0zM1895.42 808.48 a7.6 7.6 0 1 0 15.2 0 a7.6 7.6 0 1 0 -15.2 0zM1829.6 770.48 a7.6 7.6 0 1 0 15.2 0 a7.6 7.6 0 1 0 -15.2 0zM1895.42 884.48 a7.6 7.6 0 1 0 15.2 0 a7.6 7.6 0 1 0 -15.2 0zM1961.24 922.48 a7.6 7.6 0 1 0 15.2 0 a7.6 7.6 0 1 0 -15.2 0zM1961.24 998.48 a7.6 7.6 0 1 0 15.2 0 a7.6 7.6 0 1 0 -15.2 0zM1895.42 1036.48 a7.6 7.6 0 1 0 15.2 0 a7.6 7.6 0 1 0 -15.2 0zM1829.6 998.48 a7.6 7.6 0 1 0 15.2 0 a7.6 7.6 0 1 0 -15.2 0zM1829.6 922.48 a7.6 7.6 0 1 0 15.2 0 a7.6 7.6 0 1 0 -15.2 0z" fill="rgba(185, 191, 255, 0.2)"></path>
        <path d="M0 -47L40.7 -23.5L40.7 23.5L0 47L-40.7 23.5L-40.7 -23.5zM40.7 23.5L81.41 47L81.41 94L40.7 117.5L0 94L0 47zM0 94L40.7 117.5L40.7 164.5L0 188L-40.7 164.5L-40.7 117.5zM40.7 164.5L81.41 188L81.41 235L40.7 258.5L0 235L0 188zM0 235L40.7 258.5L40.7 305.5L0 329L-40.7 305.5L-40.7 258.5zM40.7 305.5L81.41 329L81.41 376L40.7 399.5L0 376L0 329zM0 376L40.7 399.5L40.7 446.5L0 470L-40.7 446.5L-40.7 399.5zM40.7 446.5L81.41 470L81.41 517L40.7 540.5L0 517L0 470zM0 517L40.7 540.5L40.7 587.5L0 611L-40.7 587.5L-40.7 540.5zM40.7 587.5L81.41 611L81.41 658L40.7 681.5L0 658L0 611zM0 658L40.7 681.5L40.7 728.5L0 752L-40.7 728.5L-40.7 681.5zM40.7 728.5L81.41 752L81.41 799L40.7 822.5L0 799L0 752zM0 799L40.7 822.5L40.7 869.5L0 893L-40.7 869.5L-40.7 822.5zM40.7 869.5L81.41 893L81.41 940L40.7 963.5L0 940L0 893zM0 940L40.7 963.5L40.7 1010.5L0 1034L-40.7 1010.5L-40.7 963.5zM40.7 1010.5L81.41 1034L81.41 1081L40.7 1104.5L0 1081L0 1034zM81.41 -47L122.11 -23.5L122.11 23.5L81.41 47L40.7 23.5L40.7 -23.5zM122.11 23.5L162.82 47L162.82 94L122.11 117.5L81.41 94L81.41 47zM81.41 94L122.11 117.5L122.11 164.5L81.41 188L40.7 164.5L40.7 117.5zM122.11 164.5L162.82 188L162.82 235L122.11 258.5L81.41 235L81.41 188zM81.41 235L122.11 258.5L122.11 305.5L81.41 329L40.7 305.5L40.7 258.5zM122.11 305.5L162.82 329L162.82 376L122.11 399.5L81.41 376L81.41 329zM81.41 376L122.11 399.5L122.11 446.5L81.41 470L40.7 446.5L40.7 399.5zM122.11 446.5L162.82 470L162.82 517L122.11 540.5L81.41 517L81.41 470zM81.41 517L122.11 540.5L122.11 587.5L81.41 611L40.7 587.5L40.7 540.5zM122.11 587.5L162.82 611L162.82 658L122.11 681.5L81.41 658L81.41 611zM81.41 658L122.11 681.5L122.11 728.5L81.41 752L40.7 728.5L40.7 681.5zM122.11 728.5L162.82 752L162.82 799L122.11 822.5L81.41 799L81.41 752zM81.41 799L122.11 822.5L122.11 869.5L81.41 893L40.7 869.5L40.7 822.5zM122.11 869.5L162.82 893L162.82 940L122.11 963.5L81.41 940L81.41 893zM81.41 940L122.11 963.5L122.11 1010.5L81.41 1034L40.7 1010.5L40.7 963.5zM122.11 1010.5L162.82 1034L162.82 1081L122.11 1104.5L81.41 1081L81.41 1034zM162.82 -47L203.52 -23.5L203.52 23.5L162.82 47L122.11 23.5L122.11 -23.5zM203.52 23.5L244.23 47L244.23 94L203.52 117.5L162.82 94L162.82 47zM162.82 94L203.52 117.5L203.52 164.5L162.82 188L122.11 164.5L122.11 117.5zM203.52 164.5L244.23 188L244.23 235L203.52 258.5L162.82 235L162.82 188zM162.82 235L203.52 258.5L203.52 305.5L162.82 329L122.11 305.5L122.11 258.5zM203.52 305.5L244.23 329L244.23 376L203.52 399.5L162.82 376L162.82 329zM162.82 376L203.52 399.5L203.52 446.5L162.82 470L122.11 446.5L122.11 399.5zM203.52 446.5L244.23 470L244.23 517L203.52 540.5L162.82 517L162.82 470zM162.82 517L203.52 540.5L203.52 587.5L162.82 611L122.11 587.5L122.11 540.5zM203.52 587.5L244.23 611L244.23 658L203.52 681.5L162.82 658L162.82 611zM162.82 658L203.52 681.5L203.52 728.5L162.82 752L122.11 728.5L122.11 681.5zM203.52 728.5L244.23 752L244.23 799L203.52 822.5L162.82 799L162.82 752zM162.82 799L203.52 822.5L203.52 869.5L162.82 893L122.11 869.5L122.11 822.5zM203.52 869.5L244.23 893L244.23 940L203.52 963.5L162.82 940L162.82 893zM162.82 940L203.52 963.5L203.52 1010.5L162.82 1034L122.11 1010.5L122.11 963.5zM203.52 1010.5L244.23 1034L244.23 1081L203.52 1104.5L162.82 1081L162.82 1034zM244.23 -47L284.93 -23.5L284.93 23.5L244.23 47L203.52 23.5L203.52 -23.5zM284.93 23.5L325.63 47L325.63 94L284.93 117.5L244.23 94L244.23 47zM244.23 94L284.93 117.5L284.93 164.5L244.23 188L203.52 164.5L203.52 117.5zM284.93 164.5L325.63 188L325.63 235L284.93 258.5L244.23 235L244.23 188zM244.23 235L284.93 258.5L284.93 305.5L244.23 329L203.52 305.5L203.52 258.5zM284.93 305.5L325.63 329L325.63 376L284.93 399.5L244.23 376L244.23 329zM244.23 376L284.93 399.5L284.93 446.5L244.23 470L203.52 446.5L203.52 399.5zM284.93 446.5L325.63 470L325.63 517L284.93 540.5L244.23 517L244.23 470zM244.23 517L284.93 540.5L284.93 587.5L244.23 611L203.52 587.5L203.52 540.5zM284.93 587.5L325.63 611L325.63 658L284.93 681.5L244.23 658L244.23 611zM244.23 658L284.93 681.5L284.93 728.5L244.23 752L203.52 728.5L203.52 681.5zM284.93 728.5L325.63 752L325.63 799L284.93 822.5L244.23 799L244.23 752zM244.23 799L284.93 822.5L284.93 869.5L244.23 893L203.52 869.5L203.52 822.5zM284.93 869.5L325.63 893L325.63 940L284.93 963.5L244.23 940L244.23 893zM244.23 940L284.93 963.5L284.93 1010.5L244.23 1034L203.52 1010.5L203.52 963.5zM284.93 1010.5L325.63 1034L325.63 1081L284.93 1104.5L244.23 1081L244.23 1034zM325.63 -47L366.34 -23.5L366.34 23.5L325.63 47L284.93 23.5L284.93 -23.5zM366.34 23.5L407.04 47L407.04 94L366.34 117.5L325.63 94L325.63 47zM325.63 94L366.34 117.5L366.34 164.5L325.63 188L284.93 164.5L284.93 117.5zM366.34 164.5L407.04 188L407.04 235L366.34 258.5L325.63 235L325.63 188zM325.63 235L366.34 258.5L366.34 305.5L325.63 329L284.93 305.5L284.93 258.5zM366.34 305.5L407.04 329L407.04 376L366.34 399.5L325.63 376L325.63 329zM325.63 376L366.34 399.5L366.34 446.5L325.63 470L284.93 446.5L284.93 399.5zM366.34 446.5L407.04 470L407.04 517L366.34 540.5L325.63 517L325.63 470zM325.63 517L366.34 540.5L366.34 587.5L325.63 611L284.93 587.5L284.93 540.5zM366.34 587.5L407.04 611L407.04 658L366.34 681.5L325.63 658L325.63 611zM325.63 658L366.34 681.5L366.34 728.5L325.63 752L284.93 728.5L284.93 681.5zM366.34 728.5L407.04 752L407.04 799L366.34 822.5L325.63 799L325.63 752zM325.63 799L366.34 822.5L366.34 869.5L325.63 893L284.93 869.5L284.93 822.5zM366.34 869.5L407.04 893L407.04 940L366.34 963.5L325.63 940L325.63 893zM325.63 940L366.34 963.5L366.34 1010.5L325.63 1034L284.93 1010.5L284.93 963.5zM366.34 1010.5L407.04 1034L407.04 1081L366.34 1104.5L325.63 1081L325.63 1034zM407.04 -47L447.75 -23.5L447.75 23.5L407.04 47L366.34 23.5L366.34 -23.5zM447.75 23.5L488.45 47L488.45 94L447.75 117.5L407.04 94L407.04 47zM407.04 94L447.75 117.5L447.75 164.5L407.04 188L366.34 164.5L366.34 117.5zM447.75 164.5L488.45 188L488.45 235L447.75 258.5L407.04 235L407.04 188zM407.04 235L447.75 258.5L447.75 305.5L407.04 329L366.34 305.5L366.34 258.5zM447.75 305.5L488.45 329L488.45 376L447.75 399.5L407.04 376L407.04 329zM407.04 376L447.75 399.5L447.75 446.5L407.04 470L366.34 446.5L366.34 399.5zM447.75 446.5L488.45 470L488.45 517L447.75 540.5L407.04 517L407.04 470zM407.04 517L447.75 540.5L447.75 587.5L407.04 611L366.34 587.5L366.34 540.5zM447.75 587.5L488.45 611L488.45 658L447.75 681.5L407.04 658L407.04 611zM407.04 658L447.75 681.5L447.75 728.5L407.04 752L366.34 728.5L366.34 681.5zM447.75 728.5L488.45 752L488.45 799L447.75 822.5L407.04 799L407.04 752zM407.04 799L447.75 822.5L447.75 869.5L407.04 893L366.34 869.5L366.34 822.5zM447.75 869.5L488.45 893L488.45 940L447.75 963.5L407.04 940L407.04 893zM407.04 940L447.75 963.5L447.75 1010.5L407.04 1034L366.34 1010.5L366.34 963.5zM447.75 1010.5L488.45 1034L488.45 1081L447.75 1104.5L407.04 1081L407.04 1034zM488.45 -47L529.16 -23.5L529.16 23.5L488.45 47L447.75 23.5L447.75 -23.5zM529.16 23.5L569.86 47L569.86 94L529.16 117.5L488.45 94L488.45 47zM488.45 94L529.16 117.5L529.16 164.5L488.45 188L447.75 164.5L447.75 117.5zM529.16 164.5L569.86 188L569.86 235L529.16 258.5L488.45 235L488.45 188zM488.45 235L529.16 258.5L529.16 305.5L488.45 329L447.75 305.5L447.75 258.5zM529.16 305.5L569.86 329L569.86 376L529.16 399.5L488.45 376L488.45 329zM488.45 376L529.16 399.5L529.16 446.5L488.45 470L447.75 446.5L447.75 399.5zM529.16 446.5L569.86 470L569.86 517L529.16 540.5L488.45 517L488.45 470zM488.45 517L529.16 540.5L529.16 587.5L488.45 611L447.75 587.5L447.75 540.5zM529.16 587.5L569.86 611L569.86 658L529.16 681.5L488.45 658L488.45 611zM488.45 658L529.16 681.5L529.16 728.5L488.45 752L447.75 728.5L447.75 681.5zM529.16 728.5L569.86 752L569.86 799L529.16 822.5L488.45 799L488.45 752zM488.45 799L529.16 822.5L529.16 869.5L488.45 893L447.75 869.5L447.75 822.5zM529.16 869.5L569.86 893L569.86 940L529.16 963.5L488.45 940L488.45 893zM488.45 940L529.16 963.5L529.16 1010.5L488.45 1034L447.75 1010.5L447.75 963.5zM529.16 1010.5L569.86 1034L569.86 1081L529.16 1104.5L488.45 1081L488.45 1034zM569.86 -47L610.57 -23.5L610.57 23.5L569.86 47L529.16 23.5L529.16 -23.5zM610.57 23.5L651.27 47L651.27 94L610.57 117.5L569.86 94L569.86 47zM569.86 94L610.57 117.5L610.57 164.5L569.86 188L529.16 164.5L529.16 117.5zM610.57 164.5L651.27 188L651.27 235L610.57 258.5L569.86 235L569.86 188zM569.86 235L610.57 258.5L610.57 305.5L569.86 329L529.16 305.5L529.16 258.5zM610.57 305.5L651.27 329L651.27 376L610.57 399.5L569.86 376L569.86 329zM569.86 376L610.57 399.5L610.57 446.5L569.86 470L529.16 446.5L529.16 399.5zM610.57 446.5L651.27 470L651.27 517L610.57 540.5L569.86 517L569.86 470zM569.86 517L610.57 540.5L610.57 587.5L569.86 611L529.16 587.5L529.16 540.5zM610.57 587.5L651.27 611L651.27 658L610.57 681.5L569.86 658L569.86 611zM569.86 658L610.57 681.5L610.57 728.5L569.86 752L529.16 728.5L529.16 681.5zM610.57 728.5L651.27 752L651.27 799L610.57 822.5L569.86 799L569.86 752zM569.86 799L610.57 822.5L610.57 869.5L569.86 893L529.16 869.5L529.16 822.5zM610.57 869.5L651.27 893L651.27 940L610.57 963.5L569.86 940L569.86 893zM569.86 940L610.57 963.5L610.57 1010.5L569.86 1034L529.16 1010.5L529.16 963.5zM610.57 1010.5L651.27 1034L651.27 1081L610.57 1104.5L569.86 1081L569.86 1034zM651.27 -47L691.97 -23.5L691.97 23.5L651.27 47L610.57 23.5L610.57 -23.5zM691.97 23.5L732.68 47L732.68 94L691.97 117.5L651.27 94L651.27 47zM651.27 94L691.97 117.5L691.97 164.5L651.27 188L610.57 164.5L610.57 117.5zM691.97 164.5L732.68 188L732.68 235L691.97 258.5L651.27 235L651.27 188zM651.27 235L691.97 258.5L691.97 305.5L651.27 329L610.57 305.5L610.57 258.5zM691.97 305.5L732.68 329L732.68 376L691.97 399.5L651.27 376L651.27 329zM651.27 376L691.97 399.5L691.97 446.5L651.27 470L610.57 446.5L610.57 399.5zM691.97 446.5L732.68 470L732.68 517L691.97 540.5L651.27 517L651.27 470zM651.27 517L691.97 540.5L691.97 587.5L651.27 611L610.57 587.5L610.57 540.5zM691.97 587.5L732.68 611L732.68 658L691.97 681.5L651.27 658L651.27 611zM651.27 658L691.97 681.5L691.97 728.5L651.27 752L610.57 728.5L610.57 681.5zM691.97 728.5L732.68 752L732.68 799L691.97 822.5L651.27 799L651.27 752zM651.27 799L691.97 822.5L691.97 869.5L651.27 893L610.57 869.5L610.57 822.5zM691.97 869.5L732.68 893L732.68 940L691.97 963.5L651.27 940L651.27 893zM651.27 940L691.97 963.5L691.97 1010.5L651.27 1034L610.57 1010.5L610.57 963.5zM691.97 1010.5L732.68 1034L732.68 1081L691.97 1104.5L651.27 1081L651.27 1034zM732.68 -47L773.38 -23.5L773.38 23.5L732.68 47L691.97 23.5L691.97 -23.5zM773.38 23.5L814.09 47L814.09 94L773.38 117.5L732.68 94L732.68 47zM732.68 94L773.38 117.5L773.38 164.5L732.68 188L691.97 164.5L691.97 117.5zM773.38 164.5L814.09 188L814.09 235L773.38 258.5L732.68 235L732.68 188zM732.68 235L773.38 258.5L773.38 305.5L732.68 329L691.97 305.5L691.97 258.5zM773.38 305.5L814.09 329L814.09 376L773.38 399.5L732.68 376L732.68 329zM732.68 376L773.38 399.5L773.38 446.5L732.68 470L691.97 446.5L691.97 399.5zM773.38 446.5L814.09 470L814.09 517L773.38 540.5L732.68 517L732.68 470zM732.68 517L773.38 540.5L773.38 587.5L732.68 611L691.97 587.5L691.97 540.5zM773.38 587.5L814.09 611L814.09 658L773.38 681.5L732.68 658L732.68 611zM732.68 658L773.38 681.5L773.38 728.5L732.68 752L691.97 728.5L691.97 681.5zM773.38 728.5L814.09 752L814.09 799L773.38 822.5L732.68 799L732.68 752zM732.68 799L773.38 822.5L773.38 869.5L732.68 893L691.97 869.5L691.97 822.5zM773.38 869.5L814.09 893L814.09 940L773.38 963.5L732.68 940L732.68 893zM732.68 940L773.38 963.5L773.38 1010.5L732.68 1034L691.97 1010.5L691.97 963.5zM773.38 1010.5L814.09 1034L814.09 1081L773.38 1104.5L732.68 1081L732.68 1034zM814.09 -47L854.79 -23.5L854.79 23.5L814.09 47L773.38 23.5L773.38 -23.5zM854.79 23.5L895.5 47L895.5 94L854.79 117.5L814.09 94L814.09 47zM814.09 94L854.79 117.5L854.79 164.5L814.09 188L773.38 164.5L773.38 117.5zM854.79 164.5L895.5 188L895.5 235L854.79 258.5L814.09 235L814.09 188zM814.09 235L854.79 258.5L854.79 305.5L814.09 329L773.38 305.5L773.38 258.5zM854.79 305.5L895.5 329L895.5 376L854.79 399.5L814.09 376L814.09 329zM814.09 376L854.79 399.5L854.79 446.5L814.09 470L773.38 446.5L773.38 399.5zM854.79 446.5L895.5 470L895.5 517L854.79 540.5L814.09 517L814.09 470zM814.09 517L854.79 540.5L854.79 587.5L814.09 611L773.38 587.5L773.38 540.5zM854.79 587.5L895.5 611L895.5 658L854.79 681.5L814.09 658L814.09 611zM814.09 658L854.79 681.5L854.79 728.5L814.09 752L773.38 728.5L773.38 681.5zM854.79 728.5L895.5 752L895.5 799L854.79 822.5L814.09 799L814.09 752zM814.09 799L854.79 822.5L854.79 869.5L814.09 893L773.38 869.5L773.38 822.5zM854.79 869.5L895.5 893L895.5 940L854.79 963.5L814.09 940L814.09 893zM814.09 940L854.79 963.5L854.79 1010.5L814.09 1034L773.38 1010.5L773.38 963.5zM854.79 1010.5L895.5 1034L895.5 1081L854.79 1104.5L814.09 1081L814.09 1034zM895.5 -47L936.2 -23.5L936.2 23.5L895.5 47L854.79 23.5L854.79 -23.5zM936.2 23.5L976.9 47L976.9 94L936.2 117.5L895.5 94L895.5 47zM895.5 94L936.2 117.5L936.2 164.5L895.5 188L854.79 164.5L854.79 117.5zM936.2 164.5L976.9 188L976.9 235L936.2 258.5L895.5 235L895.5 188zM895.5 235L936.2 258.5L936.2 305.5L895.5 329L854.79 305.5L854.79 258.5zM936.2 305.5L976.9 329L976.9 376L936.2 399.5L895.5 376L895.5 329zM895.5 376L936.2 399.5L936.2 446.5L895.5 470L854.79 446.5L854.79 399.5zM936.2 446.5L976.9 470L976.9 517L936.2 540.5L895.5 517L895.5 470zM895.5 517L936.2 540.5L936.2 587.5L895.5 611L854.79 587.5L854.79 540.5zM936.2 587.5L976.9 611L976.9 658L936.2 681.5L895.5 658L895.5 611zM895.5 658L936.2 681.5L936.2 728.5L895.5 752L854.79 728.5L854.79 681.5zM936.2 728.5L976.9 752L976.9 799L936.2 822.5L895.5 799L895.5 752zM895.5 799L936.2 822.5L936.2 869.5L895.5 893L854.79 869.5L854.79 822.5zM936.2 869.5L976.9 893L976.9 940L936.2 963.5L895.5 940L895.5 893zM895.5 940L936.2 963.5L936.2 1010.5L895.5 1034L854.79 1010.5L854.79 963.5zM936.2 1010.5L976.9 1034L976.9 1081L936.2 1104.5L895.5 1081L895.5 1034zM976.9 -47L1017.61 -23.5L1017.61 23.5L976.9 47L936.2 23.5L936.2 -23.5zM1017.61 23.5L1058.31 47L1058.31 94L1017.61 117.5L976.9 94L976.9 47zM976.9 94L1017.61 117.5L1017.61 164.5L976.9 188L936.2 164.5L936.2 117.5zM1017.61 164.5L1058.31 188L1058.31 235L1017.61 258.5L976.9 235L976.9 188zM976.9 235L1017.61 258.5L1017.61 305.5L976.9 329L936.2 305.5L936.2 258.5zM1017.61 305.5L1058.31 329L1058.31 376L1017.61 399.5L976.9 376L976.9 329zM976.9 376L1017.61 399.5L1017.61 446.5L976.9 470L936.2 446.5L936.2 399.5zM1017.61 446.5L1058.31 470L1058.31 517L1017.61 540.5L976.9 517L976.9 470zM976.9 517L1017.61 540.5L1017.61 587.5L976.9 611L936.2 587.5L936.2 540.5zM1017.61 587.5L1058.31 611L1058.31 658L1017.61 681.5L976.9 658L976.9 611zM976.9 658L1017.61 681.5L1017.61 728.5L976.9 752L936.2 728.5L936.2 681.5zM1017.61 728.5L1058.31 752L1058.31 799L1017.61 822.5L976.9 799L976.9 752zM976.9 799L1017.61 822.5L1017.61 869.5L976.9 893L936.2 869.5L936.2 822.5zM1017.61 869.5L1058.31 893L1058.31 940L1017.61 963.5L976.9 940L976.9 893zM976.9 940L1017.61 963.5L1017.61 1010.5L976.9 1034L936.2 1010.5L936.2 963.5zM1017.61 1010.5L1058.31 1034L1058.31 1081L1017.61 1104.5L976.9 1081L976.9 1034zM1058.31 -47L1099.02 -23.5L1099.02 23.5L1058.31 47L1017.61 23.5L1017.61 -23.5zM1099.02 23.5L1139.72 47L1139.72 94L1099.02 117.5L1058.31 94L1058.31 47zM1058.31 94L1099.02 117.5L1099.02 164.5L1058.31 188L1017.61 164.5L1017.61 117.5zM1099.02 164.5L1139.72 188L1139.72 235L1099.02 258.5L1058.31 235L1058.31 188zM1058.31 235L1099.02 258.5L1099.02 305.5L1058.31 329L1017.61 305.5L1017.61 258.5zM1099.02 305.5L1139.72 329L1139.72 376L1099.02 399.5L1058.31 376L1058.31 329zM1058.31 376L1099.02 399.5L1099.02 446.5L1058.31 470L1017.61 446.5L1017.61 399.5zM1099.02 446.5L1139.72 470L1139.72 517L1099.02 540.5L1058.31 517L1058.31 470zM1058.31 517L1099.02 540.5L1099.02 587.5L1058.31 611L1017.61 587.5L1017.61 540.5zM1099.02 587.5L1139.72 611L1139.72 658L1099.02 681.5L1058.31 658L1058.31 611zM1058.31 658L1099.02 681.5L1099.02 728.5L1058.31 752L1017.61 728.5L1017.61 681.5zM1099.02 728.5L1139.72 752L1139.72 799L1099.02 822.5L1058.31 799L1058.31 752zM1058.31 799L1099.02 822.5L1099.02 869.5L1058.31 893L1017.61 869.5L1017.61 822.5zM1099.02 869.5L1139.72 893L1139.72 940L1099.02 963.5L1058.31 940L1058.31 893zM1058.31 940L1099.02 963.5L1099.02 1010.5L1058.31 1034L1017.61 1010.5L1017.61 963.5zM1099.02 1010.5L1139.72 1034L1139.72 1081L1099.02 1104.5L1058.31 1081L1058.31 1034zM1139.72 -47L1180.43 -23.5L1180.43 23.5L1139.72 47L1099.02 23.5L1099.02 -23.5zM1180.43 23.5L1221.13 47L1221.13 94L1180.43 117.5L1139.72 94L1139.72 47zM1139.72 94L1180.43 117.5L1180.43 164.5L1139.72 188L1099.02 164.5L1099.02 117.5zM1180.43 164.5L1221.13 188L1221.13 235L1180.43 258.5L1139.72 235L1139.72 188zM1139.72 235L1180.43 258.5L1180.43 305.5L1139.72 329L1099.02 305.5L1099.02 258.5zM1180.43 305.5L1221.13 329L1221.13 376L1180.43 399.5L1139.72 376L1139.72 329zM1139.72 376L1180.43 399.5L1180.43 446.5L1139.72 470L1099.02 446.5L1099.02 399.5zM1180.43 446.5L1221.13 470L1221.13 517L1180.43 540.5L1139.72 517L1139.72 470zM1139.72 517L1180.43 540.5L1180.43 587.5L1139.72 611L1099.02 587.5L1099.02 540.5zM1180.43 587.5L1221.13 611L1221.13 658L1180.43 681.5L1139.72 658L1139.72 611zM1139.72 658L1180.43 681.5L1180.43 728.5L1139.72 752L1099.02 728.5L1099.02 681.5zM1180.43 728.5L1221.13 752L1221.13 799L1180.43 822.5L1139.72 799L1139.72 752zM1139.72 799L1180.43 822.5L1180.43 869.5L1139.72 893L1099.02 869.5L1099.02 822.5zM1180.43 869.5L1221.13 893L1221.13 940L1180.43 963.5L1139.72 940L1139.72 893zM1139.72 940L1180.43 963.5L1180.43 1010.5L1139.72 1034L1099.02 1010.5L1099.02 963.5zM1180.43 1010.5L1221.13 1034L1221.13 1081L1180.43 1104.5L1139.72 1081L1139.72 1034zM1221.13 -47L1261.83 -23.5L1261.83 23.5L1221.13 47L1180.43 23.5L1180.43 -23.5zM1261.83 23.5L1302.54 47L1302.54 94L1261.83 117.5L1221.13 94L1221.13 47zM1221.13 94L1261.83 117.5L1261.83 164.5L1221.13 188L1180.43 164.5L1180.43 117.5zM1261.83 164.5L1302.54 188L1302.54 235L1261.83 258.5L1221.13 235L1221.13 188zM1221.13 235L1261.83 258.5L1261.83 305.5L1221.13 329L1180.43 305.5L1180.43 258.5zM1261.83 305.5L1302.54 329L1302.54 376L1261.83 399.5L1221.13 376L1221.13 329zM1221.13 376L1261.83 399.5L1261.83 446.5L1221.13 470L1180.43 446.5L1180.43 399.5zM1261.83 446.5L1302.54 470L1302.54 517L1261.83 540.5L1221.13 517L1221.13 470zM1221.13 517L1261.83 540.5L1261.83 587.5L1221.13 611L1180.43 587.5L1180.43 540.5zM1261.83 587.5L1302.54 611L1302.54 658L1261.83 681.5L1221.13 658L1221.13 611zM1221.13 658L1261.83 681.5L1261.83 728.5L1221.13 752L1180.43 728.5L1180.43 681.5zM1261.83 728.5L1302.54 752L1302.54 799L1261.83 822.5L1221.13 799L1221.13 752zM1221.13 799L1261.83 822.5L1261.83 869.5L1221.13 893L1180.43 869.5L1180.43 822.5zM1261.83 869.5L1302.54 893L1302.54 940L1261.83 963.5L1221.13 940L1221.13 893zM1221.13 940L1261.83 963.5L1261.83 1010.5L1221.13 1034L1180.43 1010.5L1180.43 963.5zM1261.83 1010.5L1302.54 1034L1302.54 1081L1261.83 1104.5L1221.13 1081L1221.13 1034zM1302.54 -47L1343.24 -23.5L1343.24 23.5L1302.54 47L1261.83 23.5L1261.83 -23.5zM1343.24 23.5L1383.95 47L1383.95 94L1343.24 117.5L1302.54 94L1302.54 47zM1302.54 94L1343.24 117.5L1343.24 164.5L1302.54 188L1261.83 164.5L1261.83 117.5zM1343.24 164.5L1383.95 188L1383.95 235L1343.24 258.5L1302.54 235L1302.54 188zM1302.54 235L1343.24 258.5L1343.24 305.5L1302.54 329L1261.83 305.5L1261.83 258.5zM1343.24 305.5L1383.95 329L1383.95 376L1343.24 399.5L1302.54 376L1302.54 329zM1302.54 376L1343.24 399.5L1343.24 446.5L1302.54 470L1261.83 446.5L1261.83 399.5zM1343.24 446.5L1383.95 470L1383.95 517L1343.24 540.5L1302.54 517L1302.54 470zM1302.54 517L1343.24 540.5L1343.24 587.5L1302.54 611L1261.83 587.5L1261.83 540.5zM1343.24 587.5L1383.95 611L1383.95 658L1343.24 681.5L1302.54 658L1302.54 611zM1302.54 658L1343.24 681.5L1343.24 728.5L1302.54 752L1261.83 728.5L1261.83 681.5zM1343.24 728.5L1383.95 752L1383.95 799L1343.24 822.5L1302.54 799L1302.54 752zM1302.54 799L1343.24 822.5L1343.24 869.5L1302.54 893L1261.83 869.5L1261.83 822.5zM1343.24 869.5L1383.95 893L1383.95 940L1343.24 963.5L1302.54 940L1302.54 893zM1302.54 940L1343.24 963.5L1343.24 1010.5L1302.54 1034L1261.83 1010.5L1261.83 963.5zM1343.24 1010.5L1383.95 1034L1383.95 1081L1343.24 1104.5L1302.54 1081L1302.54 1034zM1383.95 -47L1424.65 -23.5L1424.65 23.5L1383.95 47L1343.24 23.5L1343.24 -23.5zM1424.65 23.5L1465.36 47L1465.36 94L1424.65 117.5L1383.95 94L1383.95 47zM1383.95 94L1424.65 117.5L1424.65 164.5L1383.95 188L1343.24 164.5L1343.24 117.5zM1424.65 164.5L1465.36 188L1465.36 235L1424.65 258.5L1383.95 235L1383.95 188zM1383.95 235L1424.65 258.5L1424.65 305.5L1383.95 329L1343.24 305.5L1343.24 258.5zM1424.65 305.5L1465.36 329L1465.36 376L1424.65 399.5L1383.95 376L1383.95 329zM1383.95 376L1424.65 399.5L1424.65 446.5L1383.95 470L1343.24 446.5L1343.24 399.5zM1424.65 446.5L1465.36 470L1465.36 517L1424.65 540.5L1383.95 517L1383.95 470zM1383.95 517L1424.65 540.5L1424.65 587.5L1383.95 611L1343.24 587.5L1343.24 540.5zM1424.65 587.5L1465.36 611L1465.36 658L1424.65 681.5L1383.95 658L1383.95 611zM1383.95 658L1424.65 681.5L1424.65 728.5L1383.95 752L1343.24 728.5L1343.24 681.5zM1424.65 728.5L1465.36 752L1465.36 799L1424.65 822.5L1383.95 799L1383.95 752zM1383.95 799L1424.65 822.5L1424.65 869.5L1383.95 893L1343.24 869.5L1343.24 822.5zM1424.65 869.5L1465.36 893L1465.36 940L1424.65 963.5L1383.95 940L1383.95 893zM1383.95 940L1424.65 963.5L1424.65 1010.5L1383.95 1034L1343.24 1010.5L1343.24 963.5zM1424.65 1010.5L1465.36 1034L1465.36 1081L1424.65 1104.5L1383.95 1081L1383.95 1034zM1465.36 -47L1506.06 -23.5L1506.06 23.5L1465.36 47L1424.65 23.5L1424.65 -23.5zM1506.06 23.5L1546.77 47L1546.77 94L1506.06 117.5L1465.36 94L1465.36 47zM1465.36 94L1506.06 117.5L1506.06 164.5L1465.36 188L1424.65 164.5L1424.65 117.5zM1506.06 164.5L1546.77 188L1546.77 235L1506.06 258.5L1465.36 235L1465.36 188zM1465.36 235L1506.06 258.5L1506.06 305.5L1465.36 329L1424.65 305.5L1424.65 258.5zM1506.06 305.5L1546.77 329L1546.77 376L1506.06 399.5L1465.36 376L1465.36 329zM1465.36 376L1506.06 399.5L1506.06 446.5L1465.36 470L1424.65 446.5L1424.65 399.5zM1506.06 446.5L1546.77 470L1546.77 517L1506.06 540.5L1465.36 517L1465.36 470zM1465.36 517L1506.06 540.5L1506.06 587.5L1465.36 611L1424.65 587.5L1424.65 540.5zM1506.06 587.5L1546.77 611L1546.77 658L1506.06 681.5L1465.36 658L1465.36 611zM1465.36 658L1506.06 681.5L1506.06 728.5L1465.36 752L1424.65 728.5L1424.65 681.5zM1506.06 728.5L1546.77 752L1546.77 799L1506.06 822.5L1465.36 799L1465.36 752zM1465.36 799L1506.06 822.5L1506.06 869.5L1465.36 893L1424.65 869.5L1424.65 822.5zM1506.06 869.5L1546.77 893L1546.77 940L1506.06 963.5L1465.36 940L1465.36 893zM1465.36 940L1506.06 963.5L1506.06 1010.5L1465.36 1034L1424.65 1010.5L1424.65 963.5zM1506.06 1010.5L1546.77 1034L1546.77 1081L1506.06 1104.5L1465.36 1081L1465.36 1034zM1546.77 -47L1587.47 -23.5L1587.47 23.5L1546.77 47L1506.06 23.5L1506.06 -23.5zM1587.47 23.5L1628.17 47L1628.17 94L1587.47 117.5L1546.77 94L1546.77 47zM1546.77 94L1587.47 117.5L1587.47 164.5L1546.77 188L1506.06 164.5L1506.06 117.5zM1587.47 164.5L1628.17 188L1628.17 235L1587.47 258.5L1546.77 235L1546.77 188zM1546.77 235L1587.47 258.5L1587.47 305.5L1546.77 329L1506.06 305.5L1506.06 258.5zM1587.47 305.5L1628.17 329L1628.17 376L1587.47 399.5L1546.77 376L1546.77 329zM1546.77 376L1587.47 399.5L1587.47 446.5L1546.77 470L1506.06 446.5L1506.06 399.5zM1587.47 446.5L1628.17 470L1628.17 517L1587.47 540.5L1546.77 517L1546.77 470zM1546.77 517L1587.47 540.5L1587.47 587.5L1546.77 611L1506.06 587.5L1506.06 540.5zM1587.47 587.5L1628.17 611L1628.17 658L1587.47 681.5L1546.77 658L1546.77 611zM1546.77 658L1587.47 681.5L1587.47 728.5L1546.77 752L1506.06 728.5L1506.06 681.5zM1587.47 728.5L1628.17 752L1628.17 799L1587.47 822.5L1546.77 799L1546.77 752zM1546.77 799L1587.47 822.5L1587.47 869.5L1546.77 893L1506.06 869.5L1506.06 822.5zM1587.47 869.5L1628.17 893L1628.17 940L1587.47 963.5L1546.77 940L1546.77 893zM1546.77 940L1587.47 963.5L1587.47 1010.5L1546.77 1034L1506.06 1010.5L1506.06 963.5zM1587.47 1010.5L1628.17 1034L1628.17 1081L1587.47 1104.5L1546.77 1081L1546.77 1034zM1628.17 -47L1668.88 -23.5L1668.88 23.5L1628.17 47L1587.47 23.5L1587.47 -23.5zM1668.88 23.5L1709.58 47L1709.58 94L1668.88 117.5L1628.17 94L1628.17 47zM1628.17 94L1668.88 117.5L1668.88 164.5L1628.17 188L1587.47 164.5L1587.47 117.5zM1668.88 164.5L1709.58 188L1709.58 235L1668.88 258.5L1628.17 235L1628.17 188zM1628.17 235L1668.88 258.5L1668.88 305.5L1628.17 329L1587.47 305.5L1587.47 258.5zM1668.88 305.5L1709.58 329L1709.58 376L1668.88 399.5L1628.17 376L1628.17 329zM1628.17 376L1668.88 399.5L1668.88 446.5L1628.17 470L1587.47 446.5L1587.47 399.5zM1668.88 446.5L1709.58 470L1709.58 517L1668.88 540.5L1628.17 517L1628.17 470zM1628.17 517L1668.88 540.5L1668.88 587.5L1628.17 611L1587.47 587.5L1587.47 540.5zM1668.88 587.5L1709.58 611L1709.58 658L1668.88 681.5L1628.17 658L1628.17 611zM1628.17 658L1668.88 681.5L1668.88 728.5L1628.17 752L1587.47 728.5L1587.47 681.5zM1668.88 728.5L1709.58 752L1709.58 799L1668.88 822.5L1628.17 799L1628.17 752zM1628.17 799L1668.88 822.5L1668.88 869.5L1628.17 893L1587.47 869.5L1587.47 822.5zM1668.88 869.5L1709.58 893L1709.58 940L1668.88 963.5L1628.17 940L1628.17 893zM1628.17 940L1668.88 963.5L1668.88 1010.5L1628.17 1034L1587.47 1010.5L1587.47 963.5zM1668.88 1010.5L1709.58 1034L1709.58 1081L1668.88 1104.5L1628.17 1081L1628.17 1034zM1709.58 -47L1750.29 -23.5L1750.29 23.5L1709.58 47L1668.88 23.5L1668.88 -23.5zM1750.29 23.5L1790.99 47L1790.99 94L1750.29 117.5L1709.58 94L1709.58 47zM1709.58 94L1750.29 117.5L1750.29 164.5L1709.58 188L1668.88 164.5L1668.88 117.5zM1750.29 164.5L1790.99 188L1790.99 235L1750.29 258.5L1709.58 235L1709.58 188zM1709.58 235L1750.29 258.5L1750.29 305.5L1709.58 329L1668.88 305.5L1668.88 258.5zM1750.29 305.5L1790.99 329L1790.99 376L1750.29 399.5L1709.58 376L1709.58 329zM1709.58 376L1750.29 399.5L1750.29 446.5L1709.58 470L1668.88 446.5L1668.88 399.5zM1750.29 446.5L1790.99 470L1790.99 517L1750.29 540.5L1709.58 517L1709.58 470zM1709.58 517L1750.29 540.5L1750.29 587.5L1709.58 611L1668.88 587.5L1668.88 540.5zM1750.29 587.5L1790.99 611L1790.99 658L1750.29 681.5L1709.58 658L1709.58 611zM1709.58 658L1750.29 681.5L1750.29 728.5L1709.58 752L1668.88 728.5L1668.88 681.5zM1750.29 728.5L1790.99 752L1790.99 799L1750.29 822.5L1709.58 799L1709.58 752zM1709.58 799L1750.29 822.5L1750.29 869.5L1709.58 893L1668.88 869.5L1668.88 822.5zM1750.29 869.5L1790.99 893L1790.99 940L1750.29 963.5L1709.58 940L1709.58 893zM1709.58 940L1750.29 963.5L1750.29 1010.5L1709.58 1034L1668.88 1010.5L1668.88 963.5zM1750.29 1010.5L1790.99 1034L1790.99 1081L1750.29 1104.5L1709.58 1081L1709.58 1034zM1790.99 -47L1831.7 -23.5L1831.7 23.5L1790.99 47L1750.29 23.5L1750.29 -23.5zM1831.7 23.5L1872.4 47L1872.4 94L1831.7 117.5L1790.99 94L1790.99 47zM1790.99 94L1831.7 117.5L1831.7 164.5L1790.99 188L1750.29 164.5L1750.29 117.5zM1831.7 164.5L1872.4 188L1872.4 235L1831.7 258.5L1790.99 235L1790.99 188zM1790.99 235L1831.7 258.5L1831.7 305.5L1790.99 329L1750.29 305.5L1750.29 258.5zM1831.7 305.5L1872.4 329L1872.4 376L1831.7 399.5L1790.99 376L1790.99 329zM1790.99 376L1831.7 399.5L1831.7 446.5L1790.99 470L1750.29 446.5L1750.29 399.5zM1831.7 446.5L1872.4 470L1872.4 517L1831.7 540.5L1790.99 517L1790.99 470zM1790.99 517L1831.7 540.5L1831.7 587.5L1790.99 611L1750.29 587.5L1750.29 540.5zM1831.7 587.5L1872.4 611L1872.4 658L1831.7 681.5L1790.99 658L1790.99 611zM1790.99 658L1831.7 681.5L1831.7 728.5L1790.99 752L1750.29 728.5L1750.29 681.5zM1831.7 728.5L1872.4 752L1872.4 799L1831.7 822.5L1790.99 799L1790.99 752zM1790.99 799L1831.7 822.5L1831.7 869.5L1790.99 893L1750.29 869.5L1750.29 822.5zM1831.7 869.5L1872.4 893L1872.4 940L1831.7 963.5L1790.99 940L1790.99 893zM1790.99 940L1831.7 963.5L1831.7 1010.5L1790.99 1034L1750.29 1010.5L1750.29 963.5zM1831.7 1010.5L1872.4 1034L1872.4 1081L1831.7 1104.5L1790.99 1081L1790.99 1034zM1872.4 -47L1913.1 -23.5L1913.1 23.5L1872.4 47L1831.7 23.5L1831.7 -23.5zM1913.1 23.5L1953.81 47L1953.81 94L1913.1 117.5L1872.4 94L1872.4 47zM1872.4 94L1913.1 117.5L1913.1 164.5L1872.4 188L1831.7 164.5L1831.7 117.5zM1913.1 164.5L1953.81 188L1953.81 235L1913.1 258.5L1872.4 235L1872.4 188zM1872.4 235L1913.1 258.5L1913.1 305.5L1872.4 329L1831.7 305.5L1831.7 258.5zM1913.1 305.5L1953.81 329L1953.81 376L1913.1 399.5L1872.4 376L1872.4 329zM1872.4 376L1913.1 399.5L1913.1 446.5L1872.4 470L1831.7 446.5L1831.7 399.5zM1913.1 446.5L1953.81 470L1953.81 517L1913.1 540.5L1872.4 517L1872.4 470zM1872.4 517L1913.1 540.5L1913.1 587.5L1872.4 611L1831.7 587.5L1831.7 540.5zM1913.1 587.5L1953.81 611L1953.81 658L1913.1 681.5L1872.4 658L1872.4 611zM1872.4 658L1913.1 681.5L1913.1 728.5L1872.4 752L1831.7 728.5L1831.7 681.5zM1913.1 728.5L1953.81 752L1953.81 799L1913.1 822.5L1872.4 799L1872.4 752zM1872.4 799L1913.1 822.5L1913.1 869.5L1872.4 893L1831.7 869.5L1831.7 822.5zM1913.1 869.5L1953.81 893L1953.81 940L1913.1 963.5L1872.4 940L1872.4 893zM1872.4 940L1913.1 963.5L1913.1 1010.5L1872.4 1034L1831.7 1010.5L1831.7 963.5zM1913.1 1010.5L1953.81 1034L1953.81 1081L1913.1 1104.5L1872.4 1081L1872.4 1034z" stroke="rgba(219, 219, 219, 0.21)" stroke-width="2"></path>
    </g>
    <defs>
        <mask id="SvgjsMask1001">
            <rect width="1920" height="1080" fill="#ffffff"></rect>
        </mask>
    </defs>
</svg>