<svg xmlns="http://www.w3.org/2000/svg" version="1.1" xmlns:xlink="http://www.w3.org/1999/xlink" xmlns:svgjs="http://svgjs.com/svgjs" width="1440" height="560" preserveAspectRatio="none" viewBox="0 0 1440 560">
    <g mask="url(&quot;#SvgjsMask1036&quot;)" fill="none">
        <rect width="1440" height="560" x="0" y="0" fill="rgba(49, 49, 49, 1)"></rect>
        <path d="M966 310L1370 -94" stroke-width="6" stroke="url(#SvgjsLinearGradient1037)" stroke-linecap="round" class="BottomLeft"></path>
        <path d="M147 186L397 -64" stroke-width="10" stroke="url(#SvgjsLinearGradient1037)" stroke-linecap="round" class="BottomLeft"></path>
        <path d="M78 506L275 309" stroke-width="10" stroke="url(#SvgjsLinearGradient1038)" stroke-linecap="round" class="TopRight"></path>
        <path d="M1072 528L1367 233" stroke-width="10" stroke="url(#SvgjsLinearGradient1038)" stroke-linecap="round" class="TopRight"></path>
        <path d="M863 279L1150 -8" stroke-width="8" stroke="url(#SvgjsLinearGradient1037)" stroke-linecap="round" class="BottomLeft"></path>
        <path d="M1247 163L1084 326" stroke-width="8" stroke="url(#SvgjsLinearGradient1038)" stroke-linecap="round" class="TopRight"></path>
        <path d="M819 427L610 636" stroke-width="8" stroke="url(#SvgjsLinearGradient1037)" stroke-linecap="round" class="BottomLeft"></path>
        <path d="M989 239L1405 -177" stroke-width="10" stroke="url(#SvgjsLinearGradient1038)" stroke-linecap="round" class="TopRight"></path>
        <path d="M774 54L580 248" stroke-width="8" stroke="url(#SvgjsLinearGradient1038)" stroke-linecap="round" class="TopRight"></path>
        <path d="M843 534L541 836" stroke-width="10" stroke="url(#SvgjsLinearGradient1038)" stroke-linecap="round" class="TopRight"></path>
        <path d="M748 318L399 667" stroke-width="10" stroke="url(#SvgjsLinearGradient1037)" stroke-linecap="round" class="BottomLeft"></path>
        <path d="M1169 70L839 400" stroke-width="6" stroke="url(#SvgjsLinearGradient1037)" stroke-linecap="round" class="BottomLeft"></path>
        <path d="M428 142L30 540" stroke-width="6" stroke="url(#SvgjsLinearGradient1038)" stroke-linecap="round" class="TopRight"></path>
        <path d="M221 274L-76 571" stroke-width="8" stroke="url(#SvgjsLinearGradient1037)" stroke-linecap="round" class="BottomLeft"></path>
        <path d="M10 465L417 58" stroke-width="10" stroke="url(#SvgjsLinearGradient1037)" stroke-linecap="round" class="BottomLeft"></path>
        <path d="M511 393L889 15" stroke-width="8" stroke="url(#SvgjsLinearGradient1037)" stroke-linecap="round" class="BottomLeft"></path>
        <path d="M490 430L744 176" stroke-width="8" stroke="url(#SvgjsLinearGradient1037)" stroke-linecap="round" class="BottomLeft"></path>
        <path d="M1156 197L960 393" stroke-width="10" stroke="url(#SvgjsLinearGradient1038)" stroke-linecap="round" class="TopRight"></path>
        <path d="M298 35L659 -326" stroke-width="10" stroke="url(#SvgjsLinearGradient1038)" stroke-linecap="round" class="TopRight"></path>
        <path d="M906 147L1053 0" stroke-width="6" stroke="url(#SvgjsLinearGradient1038)" stroke-linecap="round" class="TopRight"></path>
        <path d="M356 315L199 472" stroke-width="8" stroke="url(#SvgjsLinearGradient1038)" stroke-linecap="round" class="TopRight"></path>
        <path d="M1426 227L1698 -45" stroke-width="10" stroke="url(#SvgjsLinearGradient1038)" stroke-linecap="round" class="TopRight"></path>
        <path d="M823 264L598 489" stroke-width="10" stroke="url(#SvgjsLinearGradient1037)" stroke-linecap="round" class="BottomLeft"></path>
        <path d="M1079 487L1499 67" stroke-width="10" stroke="url(#SvgjsLinearGradient1038)" stroke-linecap="round" class="TopRight"></path>
        <path d="M732 261L1019 -26" stroke-width="10" stroke="url(#SvgjsLinearGradient1037)" stroke-linecap="round" class="BottomLeft"></path>
        <path d="M1406 541L1776 171" stroke-width="6" stroke="url(#SvgjsLinearGradient1037)" stroke-linecap="round" class="BottomLeft"></path>
        <path d="M1014 3L1312 -295" stroke-width="10" stroke="url(#SvgjsLinearGradient1038)" stroke-linecap="round" class="TopRight"></path>
        <path d="M479 391L144 726" stroke-width="8" stroke="url(#SvgjsLinearGradient1038)" stroke-linecap="round" class="TopRight"></path>
        <path d="M193 552L489 256" stroke-width="6" stroke="url(#SvgjsLinearGradient1037)" stroke-linecap="round" class="BottomLeft"></path>
        <path d="M364 321L530 155" stroke-width="8" stroke="url(#SvgjsLinearGradient1038)" stroke-linecap="round" class="TopRight"></path>
        <path d="M1280 235L967 548" stroke-width="6" stroke="url(#SvgjsLinearGradient1037)" stroke-linecap="round" class="BottomLeft"></path>
        <path d="M156 344L555 -55" stroke-width="10" stroke="url(#SvgjsLinearGradient1037)" stroke-linecap="round" class="BottomLeft"></path>
        <path d="M1005 378L683 700" stroke-width="10" stroke="url(#SvgjsLinearGradient1037)" stroke-linecap="round" class="BottomLeft"></path>
        <path d="M1279 202L1483 -2" stroke-width="6" stroke="url(#SvgjsLinearGradient1037)" stroke-linecap="round" class="BottomLeft"></path>
        <path d="M81 349L-61 491" stroke-width="6" stroke="url(#SvgjsLinearGradient1038)" stroke-linecap="round" class="TopRight"></path>
        <path d="M1139 254L1315 78" stroke-width="6" stroke="url(#SvgjsLinearGradient1037)" stroke-linecap="round" class="BottomLeft"></path>
        <path d="M557 231L832 -44" stroke-width="8" stroke="url(#SvgjsLinearGradient1038)" stroke-linecap="round" class="TopRight"></path>
        <path d="M1410 98L1118 390" stroke-width="8" stroke="url(#SvgjsLinearGradient1038)" stroke-linecap="round" class="TopRight"></path>
        <path d="M1028 558L1266 320" stroke-width="6" stroke="url(#SvgjsLinearGradient1038)" stroke-linecap="round" class="TopRight"></path>
    </g>
    <defs>
        <mask id="SvgjsMask1036">
            <rect width="1440" height="560" fill="#ffffff"></rect>
        </mask>
        <linearGradient x1="100%" y1="0%" x2="0%" y2="100%" id="SvgjsLinearGradient1037">
            <stop stop-color="rgba(255, 82, 62, 0)" offset="0"></stop>
            <stop stop-color="rgba(255, 82, 62, 1)" offset="1"></stop>
        </linearGradient>
        <linearGradient x1="0%" y1="100%" x2="100%" y2="0%" id="SvgjsLinearGradient1038">
            <stop stop-color="rgba(255, 82, 62, 0)" offset="0"></stop>
            <stop stop-color="rgba(255, 82, 62, 1)" offset="1"></stop>
        </linearGradient>
    </defs>
</svg>