<svg xmlns="http://www.w3.org/2000/svg" version="1.1" xmlns:xlink="http://www.w3.org/1999/xlink" xmlns:svgjs="http://svgjs.com/svgjs" width="1440" height="560" preserveAspectRatio="none" viewBox="0 0 1440 560">
    <g mask="url(&quot;#SvgjsMask1022&quot;)" fill="none">
        <rect width="1440" height="560" x="0" y="0" fill="rgba(37, 37, 37, 1)"></rect>
        <path d="M0,560.764C104.632,570.396,206.558,514.136,286.883,446.398C361.848,383.18,395.18,288.139,431.363,196.997C465.834,110.168,507.763,21.347,492.194,-70.767C476.773,-162.001,406.962,-230.211,347.214,-300.862C286.753,-372.355,233.985,-465.678,142.273,-484.538C51.203,-503.267,-30.438,-431.781,-116.332,-396.19C-192.257,-364.73,-275.423,-347.268,-332.264,-287.909C-390.593,-226.997,-421.143,-145.713,-435.727,-62.648C-450.639,22.288,-447.79,109.83,-416.182,190.064C-383.506,273.01,-321.406,337.235,-254.835,396.531C-177.812,465.137,-102.713,551.309,0,560.764" fill="#191919"></path>
        <path d="M1440 1111.1100000000001C1543.473 1101.885 1630.643 1045.635 1726.742 1006.179 1846.973 956.815 1998.496 954.9359999999999 2075.462 850.206 2154.532 742.614 2147.2129999999997 593.21 2127.259 461.187 2107.398 329.78 2049.9719999999998 207.30599999999998 1963.092 106.738 1876.127 6.072000000000003 1764.987-74.976 1635.99-107.47900000000004 1509.578-139.33000000000004 1377.014-116.31700000000001 1254.4850000000001-71.80600000000004 1137.246-29.216000000000008 1022.229 34.706999999999994 955.131 139.858 891.643 239.35000000000002 904.338 364.503 900.791 482.473 897.623 587.843 898.427 691.708 935.5740000000001 790.364 974.671 894.201 1024.772 1000.883 1118.401 1060.4180000000001 1211.872 1119.853 1329.671 1120.9470000000001 1440 1111.1100000000001" fill="#313131"></path>
    </g>
    <defs>
        <mask id="SvgjsMask1022">
            <rect width="1440" height="560" fill="#ffffff"></rect>
        </mask>
    </defs>
</svg>