<svg xmlns="http://www.w3.org/2000/svg" version="1.1" xmlns:xlink="http://www.w3.org/1999/xlink" xmlns:svgjs="http://svgjs.com/svgjs" width="1440" height="560" preserveAspectRatio="none" viewBox="0 0 1440 560">
    <g mask="url(&quot;#SvgjsMask1016&quot;)" fill="none">
        <rect width="1440" height="560" x="0" y="0" fill="rgba(255, 167, 167, 1)"></rect>
        <path d="M 0,43 C 32,71.8 96,177.2 160,187 C 224,196.8 256,80.8 320,92 C 384,103.2 416,253 480,243 C 544,233 576,52.2 640,42 C 704,31.8 736,187 800,192 C 864,197 896,61 960,67 C 1024,73 1056,222 1120,222 C 1184,222 1216,65.6 1280,67 C 1344,68.4 1408,196.6 1440,229L1440 560L0 560z" fill="rgba(255, 108, 108, 1)"></path>
        <path d="M 0,372 C 41.2,383.8 123.6,435.6 206,431 C 288.4,426.4 329.6,332.6 412,349 C 494.4,365.4 535.6,499.2 618,513 C 700.4,526.8 741.6,424.4 824,418 C 906.4,411.6 947.6,505.4 1030,481 C 1112.4,456.6 1154,304 1236,296 C 1318,288 1399.2,412 1440,441L1440 560L0 560z" fill="rgba(255, 67, 67, 1)"></path>
    </g>
    <defs>
        <mask id="SvgjsMask1016">
            <rect width="1440" height="560" fill="#ffffff"></rect>
        </mask>
    </defs>
</svg>